<?xml version="1.0" encoding="UTF-8" standalone="no"?>
<!-- Created with Inkscape (http://www.inkscape.org/) -->

<svg
   width="20.538345mm"
   height="20.538345mm"
   viewBox="0 0 20.538345 20.538345"
   version="1.1"
   id="svg91729"
   sodipodi:docname="buttons-zoom.svg"
   xmlns:inkscape="http://www.inkscape.org/namespaces/inkscape"
   xmlns:sodipodi="http://sodipodi.sourceforge.net/DTD/sodipodi-0.dtd"
   xmlns="http://www.w3.org/2000/svg"
   xmlns:svg="http://www.w3.org/2000/svg">
  <sodipodi:namedview
     id="namedview91731"
     pagecolor="#ffffff"
     bordercolor="#000000"
     borderopacity="0.25"
     inkscape:showpageshadow="2"
     inkscape:pageopacity="0.0"
     inkscape:pagecheckerboard="0"
     inkscape:deskcolor="#d1d1d1"
     inkscape:document-units="mm"
     showgrid="true"
     inkscape:lockguides="false"
     inkscape:zoom="0.4204826"
     inkscape:cx="323.43788"
     inkscape:cy="541.04498"
     inkscape:window-width="2560"
     inkscape:window-height="1499"
     inkscape:window-x="0"
     inkscape:window-y="0"
     inkscape:window-maximized="1"
     inkscape:current-layer="layer1">
    <inkscape:grid
       type="xygrid"
       id="grid92220" />
  </sodipodi:namedview>
  <defs
     id="defs91726">
    <filter
       style="color-interpolation-filters:sRGB"
       inkscape:label="Drop Shadow"
       id="filter107520-0-9-3-0"
       x="-0.056692921"
       y="-0.056692921"
       width="1.176378"
       height="1.176378">
      <feFlood
         flood-opacity="1"
         flood-color="rgb(0,0,0)"
         result="flood"
         id="feFlood107510-4-8-1-6" />
      <feComposite
         in="flood"
         in2="SourceGraphic"
         operator="out"
         result="composite1"
         id="feComposite107512-0-3-8-0" />
      <feGaussianBlur
         in="composite1"
         stdDeviation="1.5"
         result="blur"
         id="feGaussianBlur107514-8-8-3-4" />
      <feOffset
         dx="4"
         dy="4"
         result="offset"
         id="feOffset107516-5-5-4-1" />
      <feComposite
         in="offset"
         in2="SourceGraphic"
         operator="atop"
         result="composite2"
         id="feComposite107518-1-22-2-30" />
    </filter>
  </defs>
  <g
     inkscape:label="Layer 1"
     inkscape:groupmode="layer"
     id="layer1"
     transform="translate(-168.04992,-175.18806)">
    <g
       id="g213282">
      <rect
         style="fill:#bfcbd7;fill-opacity:1;stroke:#737373;stroke-width:0;stroke-linecap:round;stroke-linejoin:round;filter:url(#filter107520-0-9-3-0)"
         id="rect106253-8-2-5-8-9"
         width="63.5"
         height="63.5"
         x="138.89999"
         y="105.17002"
         ry="1.2715656e-06"
         transform="matrix(0.27494443,0,0,0.27494443,130.84993,147.26195)" />
      <path
         sodipodi:nodetypes="ssssssssssssssssssssccs"
         inkscape:connector-curvature="0"
         id="path4472-0-03-9-8"
         d="m 176.33578,191.24292 c 0,-1.2709 -0.002,-1.28322 -0.3769,-1.90507 -0.20729,-0.34425 -0.3769,-0.68657 -0.3769,-0.76072 0,-0.0742 -0.15125,-0.58581 -0.33611,-1.13703 -0.29224,-0.8714 -0.32799,-1.09951 -0.27392,-1.74765 0.0439,-0.52657 0.0103,-0.93205 -0.11452,-1.38101 -0.14875,-0.53505 -0.15652,-0.73327 -0.0491,-1.25322 0.0702,-0.33971 0.12757,-0.74571 0.12757,-0.90223 0,-0.69028 0.52951,-1.14183 1.18519,-1.0107 0.22782,0.0456 0.32241,0.0228 0.32241,-0.0777 0,-0.29929 0.44212,-0.55192 0.97954,-0.55971 0.37302,-0.005 0.59744,-0.0722 0.7696,-0.22901 0.13367,-0.12175 0.34888,-0.27589 0.47824,-0.34252 0.2926,-0.15069 0.85998,-0.15802 0.95006,-0.0123 0.0384,0.0621 0.20653,-0.0304 0.39154,-0.21537 0.87393,-0.87393 2.23319,0.1187 2.94756,2.15251 0.15602,0.4442 0.37471,1.00824 0.48598,1.25342 0.32629,0.71896 0.34261,0.91621 0.16196,1.95742 -0.20522,1.18279 -1.02403,3.76307 -1.40225,4.41887 -0.24318,0.42165 -0.27262,0.59989 -0.29345,1.77681 l -0.0231,1.30815 c -2.94252,-0.15635 -2.01811,-1.02447 -5.44563,-0.0538 -0.0657,0 -0.10769,-0.49818 -0.10769,-1.27918 z"
         style="fill:#ffffff;fill-opacity:1;stroke:#000000;stroke-width:0.251;stroke-miterlimit:4;stroke-dasharray:none;stroke-opacity:1" />
      <path
         sodipodi:nodetypes="cccccsssscc"
         inkscape:connector-curvature="0"
         id="path4497-2-5-4-8"
         d="m 176.20647,189.61624 c 0.0828,0.68663 0.16531,1.10372 0.28286,0.83237 l 0.45766,0.0692 c 0.32141,0.0485 0.40957,0.037 0.29613,-0.0385 -0.0888,-0.0592 -0.28924,-0.10834 -0.44521,-0.1092 -0.19666,-0.001 -0.30158,-0.0709 -0.34257,-0.22765 -0.0501,-0.19167 -0.0234,-0.21515 0.17583,-0.15463 0.12925,0.0392 0.45312,0.0913 0.71964,0.11576 0.48123,0.0442 0.48049,0.0436 -0.10769,-0.10045 -0.32574,-0.0798 -0.67098,-0.17849 -0.76708,-0.21924 z"
         style="fill:#161616;stroke-width:0.251;stroke-dasharray:none" />
      <path
         sodipodi:nodetypes="ccccscc"
         inkscape:connector-curvature="0"
         id="path4490-2-9-9-4"
         d="m 182.15319,189.43945 c -0.12393,0.0766 -0.53373,0.49453 -1.258,0.70848 l -0.3769,0.11139 0.43074,-0.0476 c 0.23691,-0.0261 0.53817,-0.0795 0.6695,-0.11862 0.14069,-0.0419 0.21796,-0.0536 0.24897,0.21148 0.1446,-0.459 0.19163,-0.57538 0.28569,-0.86511 z"
         style="fill:#161616;stroke-width:0.251;stroke-dasharray:none" />
      <path
         sodipodi:nodetypes="sscscccsscssccscccccccssccccssssssssscsccccccssscssssccccsssscccscccscccccsssscscccscssssscssscssssssscccccsccccscsscssscccscscssscc"
         inkscape:connector-curvature="0"
         d="m 178.78349,182.78715 c 0.0575,-0.007 0.15983,0.0656 0.30707,0.21856 0.43407,0.45105 0.82175,0.92591 0.77988,0.95521 -0.0192,0.0134 -0.21655,0.12842 -0.43865,0.25558 -0.46336,0.26528 -0.55373,0.16844 -0.10769,-0.11543 l 0.29614,-0.18844 -0.2847,0.0646 c -0.26368,0.0599 -0.29785,0.0244 -0.46641,-0.48307 -0.15265,-0.45959 -0.18142,-0.69483 -0.0856,-0.70702 z m -1.0432,-1.98511 c 0.11578,-0.003 0.2418,0.0445 0.37656,0.14302 0.19737,0.14431 0.19868,0.16854 0.0276,0.52732 -0.13865,0.29075 -0.24009,0.37258 -0.44656,0.36024 -0.20693,-0.0159 -0.29699,-0.10465 -0.41489,-0.23089 -0.16285,-0.17995 -0.10086,-0.28431 0.0641,-0.53603 0.11235,-0.17146 0.24436,-0.25956 0.39322,-0.26366 z m 5.78185,4.30724 c -0.006,0.0262 -0.0131,0.053 -0.0185,0.0786 0.009,-0.025 0.0143,-0.0514 0.0185,-0.0786 z m -3.53762,-5.26463 -0.42957,0.12266 c 0.0575,0.063 0.10383,0.15455 0.16338,0.26972 0.094,0.18186 0.17112,0.40559 0.17112,0.49737 0,0.0918 -0.0606,0.16079 -0.13461,0.15328 -0.44901,-0.0455 -1.52004,-0.19692 -1.61325,-0.22799 -0.0609,-0.0203 0.006,-0.18821 0.14907,-0.35435 l -0.60051,0.2645 c 0.19093,0.0923 0.17239,0.10292 0.0187,0.10887 -0.29271,0.0113 -0.61919,0.40542 -0.61919,0.7474 0,0.22713 0.12447,0.42416 0.46876,0.74151 0.2579,0.23772 0.5656,0.46294 0.68364,0.5004 0.14762,0.0468 0.27092,0.26065 0.39507,0.68515 0.28184,0.96376 0.27575,1.14794 -0.0399,1.19564 -0.24876,0.0376 -0.25285,0.047 -0.0538,0.124 0.15739,0.0609 0.0994,0.0826 -0.21537,0.0803 -0.23691,-0.002 -0.52766,-0.0419 -0.64612,-0.0892 -0.21537,-0.086 -0.21537,-0.0862 0,-0.0954 0.11846,-0.005 0.28542,-0.0536 0.37118,-0.10786 0.10181,-0.0644 0.002,-0.0779 -0.28755,-0.039 l -0.4437,0.0594 -0.2152,-0.73983 c -0.63568,-2.18631 -0.76373,-2.68157 -0.3843,-2.96975 -0.23927,0.18747 -0.32657,0.27168 -0.33298,0.44908 -0.12309,-0.10345 -0.50559,-0.12509 -0.54297,-0.0236 0.24438,-0.0508 0.48946,0.10448 0.48946,0.30808 0,0.091 0.19383,0.84286 0.43074,1.6708 0.23691,0.82795 0.43074,1.55147 0.43074,1.60771 0,0.0562 -0.10903,0.10554 -0.24229,0.1097 -0.23158,0.007 -0.23277,0.0118 -0.0269,0.10214 0.18045,0.0792 0.163,0.0917 -0.10769,0.0771 -0.58037,-0.0315 -0.75024,-0.0889 -0.58099,-0.19602 0.11316,-0.0717 0.0909,-0.0955 -0.0897,-0.0967 -0.33586,-0.002 -0.51101,-0.33552 -0.77214,-1.46873 -0.12095,-0.6011 -0.42621,-1.25335 -0.223,-1.74803 -0.18466,0.11776 -0.27333,0.52348 -0.2312,1.32158 0.0628,-0.18575 0.15039,-0.2142 0.26525,0.35898 0.1639,1.01854 0.38659,1.51284 0.79518,1.76537 0.39621,0.24486 0.39669,0.24637 0.13259,0.3281 -0.15266,0.0472 -0.0366,0.0558 0.27325,0.0202 0.67136,-0.0772 0.91532,-0.20381 0.91532,-0.47516 0,-0.24893 -0.0199,-0.24495 0.42889,-0.0885 l 0.35335,0.12333 -0.2566,0.15042 c -0.20614,0.12095 -0.21411,0.14002 -0.041,0.0973 0.11845,-0.0293 0.35023,-0.0853 0.5152,-0.12468 l 0.30001,-0.0717 -0.20948,0.36259 c -0.1152,0.19944 -0.26813,0.65335 -0.33988,1.00871 -0.0718,0.35536 -0.1973,0.7418 -0.27898,0.85862 -0.0817,0.11683 -0.14415,0.33489 -0.13881,0.48458 0.008,0.23262 0.0259,0.2173 0.12031,-0.10482 l 0.11054,-0.3769 0.13444,0.52009 c 0.074,0.28606 0.21608,0.60104 0.31565,0.69995 0.16958,0.16846 0.16976,0.15281 0.003,-0.24902 -0.35811,-0.86048 -0.10993,-2.44337 0.50596,-3.22635 0.24693,-0.31392 1.01713,-0.74651 1.16569,-0.65469 0.0537,0.0332 0.0573,0.19462 0.008,0.36613 -0.0799,0.27848 0.006,1.13583 0.12569,1.25554 0.027,0.027 0.0452,-0.2777 0.0405,-0.67724 l -0.008,-0.72654 0.43529,0.0318 c 0.23945,0.0174 0.55443,-0.0159 0.69995,-0.074 0.22359,-0.0893 0.17417,-0.10662 -0.31919,-0.1124 -0.38426,-0.004 -0.65109,-0.0678 -0.78071,-0.18508 -0.23658,-0.2141 -0.25349,-0.36024 -0.0417,-0.36024 0.0853,0 0.18086,-0.0414 0.21217,-0.092 0.0313,-0.0507 -0.0537,-0.0711 -0.18895,-0.0453 -0.18982,0.0363 -0.33793,-0.0651 -0.64965,-0.44555 -0.22205,-0.27098 -0.37395,-0.54084 -0.33769,-0.5995 0.0409,-0.0662 -0.0553,-0.0824 -0.25356,-0.0427 -0.23184,0.0464 -0.46942,-0.0177 -0.86687,-0.23404 -0.57836,-0.31479 -0.72419,-0.52767 -0.28637,-0.41779 0.22758,0.0571 0.28753,0.006 0.4691,-0.4018 0.11894,-0.26703 0.16963,-0.51681 0.11828,-0.58301 -0.0639,-0.0824 0.0806,-0.0849 0.50007,-0.009 0.48339,0.0876 0.59253,0.14733 0.60455,0.33113 0.0136,0.20793 0.018,0.20662 0.0612,-0.018 0.0564,-0.29267 0.45616,-0.33799 0.475,-0.0538 0.0119,0.17947 0.0148,0.17947 0.0617,0 0.0583,-0.22293 0.28218,-0.24612 0.4479,-0.0464 0.0871,0.10495 0.0718,0.21018 -0.0589,0.40382 l -0.17667,0.26181 0.26568,-0.24061 0.26585,-0.24078 0.55138,0.56383 c 0.30328,0.31007 0.90703,0.91114 1.24763,1.40664 0.71764,1.04401 0.95542,1.49942 0.90792,1.80356 0.10173,-0.43087 0.29849,-0.93622 0.20628,-1.34792 -0.0383,-0.15828 -0.14048,-0.27454 -0.30437,-0.63568 l 0.1092,0.92542 c 0.008,0.16288 -0.009,0.29614 -0.0377,0.29614 -0.0498,0 -0.0917,-0.2867 -0.0665,-0.45447 0.006,-0.0427 -0.0912,-0.13253 -0.21705,-0.19989 -0.18294,-0.0979 -0.19899,-0.14154 -0.0797,-0.21705 0.12169,-0.0771 0.11759,-0.0947 -0.0225,-0.0961 -0.0945,-9e-4 -0.26222,-0.10154 -0.37269,-0.22361 -0.15951,-0.17626 -0.17169,-0.23999 -0.0591,-0.3096 0.0995,-0.0615 0.10629,-0.10954 0.0227,-0.16119 -0.0656,-0.0405 -0.12229,-0.0344 -0.12602,0.0135 -0.009,0.11486 -0.37543,-1.00436 -0.46843,-1.43036 -0.0741,-0.35082 -0.14438,-0.53397 -0.25306,-0.81773 -0.24578,-0.65115 -0.223,-0.24551 0.0365,0.65048 0.14319,0.49435 0.23346,0.94235 0.20057,0.99558 -0.0329,0.0532 -0.0143,0.0968 0.0416,0.0968 0.0558,0 0.12685,0.0969 0.15783,0.21537 0.031,0.11846 0.0475,0.21537 0.0367,0.21537 -0.0109,0 -0.35264,-0.3352 -0.75935,-0.74504 -0.4067,-0.40985 -0.90096,-0.83222 -1.09839,-0.93855 -0.41034,-0.22098 -0.62538,-0.72436 -0.48407,-1.09603 z"
         style="fill:#000000;fill-opacity:1;stroke-width:0.251;stroke-dasharray:none"
         id="path4597-9-4-9-0" />
      <path
         sodipodi:nodetypes="ccsscc"
         inkscape:connector-curvature="0"
         id="path4569-7-8-1-0"
         d="m 175.04188,185.87603 c -0.006,-0.11717 -0.004,-0.21946 0.01,-0.30253 0.0454,-0.27972 0.11241,-0.36547 0.28739,-0.36798 0.20018,-0.003 0.20617,-0.0162 0.0479,-0.10853 -0.132,-0.077 -0.35681,-0.4313 -0.41981,-0.68497 z"
         style="fill:#000000;fill-opacity:1;stroke-width:0.251;stroke-dasharray:none" />
      <path
         style="fill:#f1c27d;fill-opacity:0.889401;stroke:#000000;stroke-width:0.251;stroke-linecap:butt;stroke-linejoin:miter;stroke-dasharray:none;stroke-opacity:1"
         d="m 181.03051,192.32058 c -0.20093,-0.0267 -0.6863,-0.13035 -1.0786,-0.23036 -0.68865,-0.17555 -0.72947,-0.1818 -1.18297,-0.18098 -0.52719,9.9e-4 -0.85539,0.0513 -1.67374,0.25697 -0.2946,0.074 -0.54177,0.12849 -0.54925,0.12102 -0.007,-0.007 -0.0215,-0.42282 -0.0311,-0.92301 -0.0169,-0.88024 -0.0154,-0.90885 0.0484,-0.89053 0.13273,0.0381 0.71172,0.10276 0.73268,0.0818 0.0711,-0.0711 -0.23286,-0.19725 -0.47516,-0.19725 -0.13031,0 -0.29685,-0.0806 -0.32659,-0.15812 -0.0119,-0.031 -0.0216,-0.096 -0.0216,-0.14452 0,-0.0747 0.012,-0.0849 0.0783,-0.0665 0.30197,0.0839 1.21636,0.19043 1.15689,0.13485 -0.0191,-0.0179 -0.26183,-0.0911 -0.5393,-0.16275 -0.77358,-0.19969 -0.74337,-0.17965 -1.03278,-0.68514 -0.3303,-0.5769 -0.33966,-0.59729 -0.42357,-0.92302 -0.0401,-0.15558 -0.15835,-0.54701 -0.2628,-0.86983 -0.31302,-0.96742 -0.32841,-1.06051 -0.30757,-1.86002 0.008,-0.32002 0.0123,-0.3353 0.0973,-0.37403 0.0487,-0.0222 0.12703,-0.0404 0.17396,-0.0404 0.0469,0 0.0853,-0.009 0.0853,-0.0205 0,-0.0113 -0.0665,-0.0858 -0.14787,-0.16557 -0.18449,-0.181 -0.20421,-0.22552 -0.31913,-0.72069 -0.12994,-0.55986 -0.13911,-0.72322 -0.0633,-1.12865 0.0799,-0.4277 0.10429,-0.40194 0.2327,0.24624 0.19006,0.95932 0.37425,1.33252 0.80214,1.62525 0.13395,0.0916 0.248,0.17935 0.25343,0.1949 0.005,0.0155 -0.0494,0.0526 -0.12178,0.0822 l -0.13165,0.054 0.19621,0.003 c 0.25534,0.004 0.73784,-0.088 0.905,-0.17325 0.1529,-0.078 0.20333,-0.15632 0.20407,-0.31689 0.001,-0.20264 0.023,-0.20803 0.37422,-0.0914 0.17661,0.0587 0.3211,0.11642 0.32108,0.12832 -2e-5,0.0119 -0.0783,0.0656 -0.17396,0.11932 -0.0957,0.0537 -0.17394,0.11245 -0.17394,0.13048 0,0.018 0.007,0.0328 0.0146,0.0328 0.0183,0 0.74659,-0.17202 0.82892,-0.19579 0.0469,-0.0136 0.0293,0.0407 -0.0781,0.23982 -0.17188,0.31866 -0.24794,0.53669 -0.40172,1.15152 -0.0663,0.26525 -0.1774,0.60188 -0.2468,0.74805 -0.0877,0.18477 -0.13152,0.33207 -0.14369,0.48324 -0.0243,0.30206 0.0403,0.282 0.13905,-0.0432 0.0435,-0.14334 0.0879,-0.26077 0.0985,-0.26095 0.0107,-1.7e-4 0.046,0.11066 0.0786,0.24631 0.084,0.34999 0.25522,0.74239 0.38184,0.87509 0.14547,0.15246 0.16197,0.0711 0.0443,-0.21846 -0.19278,-0.47443 -0.24291,-1.07032 -0.14186,-1.68611 0.13944,-0.84967 0.44674,-1.49668 0.863,-1.81699 0.27774,-0.21371 0.7075,-0.43354 0.82165,-0.42029 0.0825,0.01 0.0894,0.0226 0.0801,0.14967 -0.0566,0.76911 0.031,1.59128 0.15622,1.46613 0.0154,-0.0154 0.028,-0.3359 0.028,-0.71226 v -0.68428 l 0.5219,-7e-5 c 0.44317,-7e-5 0.53986,-0.01 0.64095,-0.0649 0.1661,-0.0904 0.10114,-0.11385 -0.38,-0.13711 -0.5039,-0.0244 -0.64447,-0.0658 -0.80895,-0.23818 -0.18143,-0.19022 -0.16421,-0.27304 0.0568,-0.27304 0.086,0 0.16068,-0.0598 0.16068,-0.12873 0,-0.0312 -0.0552,-0.0452 -0.17856,-0.0452 -0.23176,0 -0.35502,-0.0775 -0.59618,-0.37483 -0.26484,-0.32654 -0.38214,-0.5148 -0.38214,-0.61332 0,-0.0829 -0.006,-0.0846 -0.35228,-0.0964 -0.33524,-0.0114 -0.36677,-0.0193 -0.65159,-0.16275 -0.33627,-0.16932 -0.64415,-0.38761 -0.62079,-0.44016 0.009,-0.0191 0.0233,-0.0323 0.0329,-0.0293 0.01,0.003 0.0913,0.0165 0.18156,0.0299 0.15016,0.0223 0.1726,0.0159 0.26309,-0.0751 0.13697,-0.13771 0.3239,-0.60119 0.32877,-0.81519 0.005,-0.2031 -0.0136,-0.1991 0.4748,-0.10443 0.50737,0.0984 0.59583,0.15628 0.59583,0.39013 0,0.13604 0.0555,0.0988 0.0847,-0.0568 0.028,-0.14916 0.14074,-0.2612 0.26289,-0.2612 0.1217,0 0.17437,0.0599 0.17437,0.19833 0,0.15484 0.0473,0.1447 0.1137,-0.0244 0.0301,-0.0765 0.0808,-0.14923 0.11283,-0.1615 0.0895,-0.0344 0.29042,0.0775 0.31499,0.17541 0.0286,0.11384 -1e-4,0.1935 -0.14616,0.40581 -0.0673,0.0979 -0.115,0.18541 -0.10592,0.19448 0.009,0.009 0.13088,-0.0865 0.27067,-0.21241 0.1398,-0.12591 0.26676,-0.22472 0.28215,-0.21959 0.0608,0.0203 1.37103,1.41568 1.57572,1.67816 0.30269,0.38814 0.75981,1.09391 0.92911,1.43447 l 0.14177,0.28518 -0.0584,0.32371 c -0.18406,1.02076 -0.87265,3.23129 -1.27181,4.08284 -0.14122,0.30126 -0.18798,0.36715 -0.33953,0.4784 -0.24208,0.1777 -0.67199,0.38609 -0.98411,0.47702 -0.27266,0.0794 -0.40868,0.15386 -0.22507,0.12315 0.0568,-0.01 0.24731,-0.0345 0.42332,-0.0555 0.17602,-0.0211 0.41087,-0.0595 0.5219,-0.0855 0.11103,-0.0259 0.21198,-0.0365 0.22433,-0.0234 0.0123,0.0131 0.009,0.22737 -0.007,0.47614 -0.0162,0.24878 -0.0303,0.75372 -0.0311,1.12209 l -0.002,0.66978 -0.16527,-0.004 c -0.0909,-0.002 -0.32967,-0.0254 -0.5306,-0.0521 z"
         id="path155506-4-4-9-8" />
      <path
         style="fill:#f1c27d;fill-opacity:0.889401;stroke:#000000;stroke-width:0.251;stroke-linecap:butt;stroke-linejoin:miter;stroke-dasharray:none;stroke-opacity:1"
         d="m 176.57695,185.03581 c -0.12438,-0.0132 -0.26272,-0.0359 -0.30742,-0.0505 l -0.0813,-0.0266 0.0729,-0.0776 c 0.0905,-0.0963 0.0648,-0.12461 -0.11291,-0.12461 -0.11558,0 -0.15992,-0.0222 -0.2654,-0.13313 -0.0697,-0.0732 -0.16259,-0.22588 -0.20651,-0.33923 -0.0949,-0.24502 -0.5136,-1.85371 -0.54601,-2.09799 -0.0622,-0.46905 0.29894,-0.87419 0.7793,-0.87419 0.30165,0 0.38037,0.0383 0.40809,0.19849 0.0414,0.23912 0.19055,0.81157 0.52291,2.00657 0.1803,0.64827 0.32782,1.20771 0.32782,1.24321 0,0.0648 -0.0185,0.0728 -0.29575,0.12929 l -0.13917,0.0283 0.13917,0.0744 c 0.13873,0.0741 0.13884,0.0744 0.0348,0.071 -0.0574,-0.002 -0.20615,-0.0142 -0.33054,-0.0274 z"
         id="path157164-3-6-4-6" />
      <path
         style="fill:#f1c27d;fill-opacity:0.889401;stroke:#000000;stroke-width:0.251;stroke-linecap:butt;stroke-linejoin:miter;stroke-dasharray:none;stroke-opacity:1"
         d="m 177.8817,184.69801 c -0.0383,-0.009 -0.12438,-0.0334 -0.19136,-0.0551 l -0.12178,-0.0395 0.16234,-0.0245 c 0.19075,-0.0288 0.36131,-0.10359 0.34873,-0.1529 -0.005,-0.0208 -0.10249,-0.0285 -0.24258,-0.0191 -0.12853,0.009 -0.29606,0.0164 -0.37228,0.0174 l -0.13858,0.002 -0.3036,-1.05391 c -0.3207,-1.11324 -0.48052,-1.76544 -0.48029,-1.9599 2.4e-4,-0.20397 0.11265,-0.4567 0.24186,-0.54377 0.15283,-0.103 0.42602,-0.18274 0.62545,-0.18258 l 0.15895,1.3e-4 -0.11202,0.0683 c -0.14362,0.0876 -0.3127,0.32106 -0.36019,0.49741 -0.0787,0.29245 0.0527,0.57122 0.43208,0.91643 0.23674,0.21541 0.62129,0.50082 0.67479,0.50082 0.0618,0 0.21024,0.17421 0.28638,0.33622 0.11265,0.23965 0.31556,1.0131 0.32146,1.22537 0.006,0.21504 -0.041,0.27033 -0.25944,0.30526 -0.17048,0.0273 -0.19114,0.0654 -0.0708,0.13072 0.092,0.0499 0.0815,0.0523 -0.21643,0.0498 -0.17223,-0.001 -0.34445,-0.01 -0.38273,-0.0183 z"
         id="path157166-5-9-2-8" />
      <path
         style="fill:#f1c27d;fill-opacity:0.889401;stroke:#000000;stroke-width:0.251;stroke-linecap:butt;stroke-linejoin:miter;stroke-dasharray:none;stroke-opacity:1"
         d="m 179.08208,180.78775 c -0.77587,-0.10658 -0.93942,-0.13934 -0.93942,-0.1882 0,-0.0642 0.40255,-0.38707 0.61057,-0.48965 0.10587,-0.0522 0.26484,-0.0943 0.40013,-0.10585 0.3673,-0.0315 0.5328,0.10696 0.67737,0.56659 0.0998,0.31731 0.0615,0.32841 -0.74865,0.21711 z"
         id="path157168-6-2-0-2" />
      <path
         style="fill:#f1c27d;fill-opacity:0.889401;stroke:#000000;stroke-width:0.251;stroke-linecap:butt;stroke-linejoin:miter;stroke-dasharray:none;stroke-opacity:1"
         d="m 183.45505,184.11283 c -0.0154,-0.11482 -0.0311,-0.2317 -0.0349,-0.25973 -0.006,-0.0445 -0.13984,-0.15323 -0.30184,-0.24499 -0.044,-0.0249 -0.0401,-0.0421 0.0261,-0.11254 0.099,-0.10539 0.0982,-0.1308 -0.004,-0.1308 -0.14231,0 -0.5043,-0.28742 -0.50811,-0.40343 -6.6e-4,-0.021 0.0301,-0.0664 0.0683,-0.10107 0.0383,-0.0346 0.0696,-0.0835 0.0696,-0.10856 0,-0.0542 -0.12715,-0.12914 -0.17203,-0.1014 -0.0517,0.032 -0.32076,-0.76766 -0.50327,-1.49587 -0.13301,-0.53073 -0.32948,-1.02546 -0.40724,-1.02546 -0.0533,0 -0.0175,0.18632 0.1985,1.03496 0.10349,0.40656 0.18817,0.80973 0.18817,0.89593 0,0.11489 0.0137,0.15672 0.0513,0.15672 0.0555,0 0.15746,0.16982 0.15746,0.26231 0,0.0329 -0.25423,-0.18587 -0.60018,-0.51637 -0.65399,-0.62477 -0.90633,-0.84233 -1.22793,-1.05863 -0.23811,-0.16016 -0.38058,-0.34426 -0.45324,-0.5857 -0.0815,-0.27075 -0.07,-0.30807 0.15026,-0.48808 0.11003,-0.0899 0.25044,-0.18473 0.31202,-0.21067 0.2743,-0.11555 0.64644,-0.0192 1.01883,0.26368 0.5398,0.41009 0.96006,1.09011 1.37761,2.22907 0.10875,0.29662 0.28191,0.73933 0.38483,0.9838 0.21836,0.51875 0.26305,0.69915 0.24851,1.00304 l -0.0107,0.22255 z"
         id="path157170-1-9-6-3" />
      <path
         style="fill:#81520e;fill-opacity:0.889401;stroke:#000000;stroke-width:0.251;stroke-linecap:butt;stroke-linejoin:miter;stroke-dasharray:none;stroke-opacity:1"
         d="m 179.09982,184.30363 c 0.012,-0.0194 0.13947,-0.11472 0.28323,-0.21173 0.14376,-0.097 0.2561,-0.18166 0.24965,-0.18811 -0.006,-0.006 -0.10981,0.0109 -0.22968,0.0386 -0.15402,0.0356 -0.23739,0.0399 -0.28425,0.0149 -0.12938,-0.0692 -0.4382,-1.03995 -0.35677,-1.12139 0.0574,-0.0574 0.16536,0.0273 0.50802,0.39851 0.36708,0.39762 0.58986,0.68926 0.5529,0.72379 -0.0152,0.0142 -0.16783,0.10566 -0.33926,0.20329 -0.29738,0.16937 -0.43131,0.21898 -0.38384,0.14216 z"
         id="path157172-4-0-5-8" />
      <path
         style="fill:#81520e;fill-opacity:0.889401;stroke:#000000;stroke-width:0.251;stroke-linecap:butt;stroke-linejoin:miter;stroke-dasharray:none;stroke-opacity:1"
         d="m 177.46031,181.73279 c -0.15974,-0.0974 -0.26868,-0.26551 -0.2417,-0.37299 0.033,-0.1315 0.17174,-0.33659 0.30163,-0.44588 0.0979,-0.0824 0.13718,-0.094 0.26811,-0.0792 0.18149,0.0205 0.43642,0.18573 0.45201,0.29304 0.0122,0.0841 -0.17357,0.47547 -0.28151,0.59305 -0.0928,0.10112 -0.34255,0.10713 -0.49854,0.012 z"
         id="path158899-0-3-9-5" />
    </g>
  </g>
</svg>
