<?xml version="1.0" encoding="UTF-8" standalone="no"?>
<!-- Created with Inkscape (http://www.inkscape.org/) -->

<svg
   width="20.491745mm"
   height="20.49173mm"
   viewBox="0 0 20.491745 20.49173"
   version="1.1"
   id="svg91729"
   sodipodi:docname="buttons-zoom.svg"
   xmlns:inkscape="http://www.inkscape.org/namespaces/inkscape"
   xmlns:sodipodi="http://sodipodi.sourceforge.net/DTD/sodipodi-0.dtd"
   xmlns="http://www.w3.org/2000/svg"
   xmlns:svg="http://www.w3.org/2000/svg">
  <sodipodi:namedview
     id="namedview91731"
     pagecolor="#ffffff"
     bordercolor="#000000"
     borderopacity="0.25"
     inkscape:showpageshadow="2"
     inkscape:pageopacity="0.0"
     inkscape:pagecheckerboard="0"
     inkscape:deskcolor="#d1d1d1"
     inkscape:document-units="mm"
     showgrid="true"
     inkscape:lockguides="false"
     inkscape:zoom="0.4204826"
     inkscape:cx="323.43788"
     inkscape:cy="541.04498"
     inkscape:window-width="2560"
     inkscape:window-height="1499"
     inkscape:window-x="0"
     inkscape:window-y="0"
     inkscape:window-maximized="1"
     inkscape:current-layer="layer1">
    <inkscape:grid
       type="xygrid"
       id="grid92220" />
  </sodipodi:namedview>
  <defs
     id="defs91726">
    <filter
       style="color-interpolation-filters:sRGB"
       inkscape:label="Drop Shadow"
       id="filter106782-8-2-3-6-5"
       x="-0.056692921"
       y="-0.056692921"
       width="1.176378"
       height="1.176378">
      <feFlood
         flood-opacity="1"
         flood-color="rgb(0,0,0)"
         result="flood"
         id="feFlood106772-5-1-34-0-5" />
      <feComposite
         in="flood"
         in2="SourceGraphic"
         operator="in"
         result="composite1"
         id="feComposite106774-8-7-4-8-8" />
      <feGaussianBlur
         in="composite1"
         stdDeviation="1.5"
         result="blur"
         id="feGaussianBlur106776-4-5-3-9-7" />
      <feOffset
         dx="4"
         dy="4"
         result="offset"
         id="feOffset106778-3-1-9-2-1" />
      <feComposite
         in="SourceGraphic"
         in2="offset"
         operator="over"
         result="composite2"
         id="feComposite106780-7-7-7-2-7" />
    </filter>
  </defs>
  <g
     inkscape:label="Layer 1"
     inkscape:groupmode="layer"
     id="layer1"
     transform="translate(-139.0555,-175.27676)">
    <g
       id="g213267"
       inkscape:export-filename="git/HaasoscopeProGUI/src/hspro/gui/icons/holding-hoover.svg"
       inkscape:export-xdpi="96"
       inkscape:export-ydpi="96">
      <rect
         style="fill:#c0ced8;fill-opacity:1;stroke:#737373;stroke-width:0;stroke-linecap:round;stroke-linejoin:round;filter:url(#filter106782-8-2-3-6-5)"
         id="rect106253-1-7-3-1-9"
         width="63.5"
         height="63.5"
         x="31.574656"
         y="103.53325"
         ry="1.2715656e-06"
         transform="matrix(0.2743203,0,0,0.2743203,131.38149,147.86305)" />
      <g
         id="g4609-2-1-77"
         transform="matrix(0.0861481,0,0,0.0861481,112.43001,130.39429)"
         style="stroke-width:2.91359;stroke-dasharray:none">
        <path
           sodipodi:nodetypes="ssssssssssssssssssssccs"
           inkscape:connector-curvature="0"
           id="path4472-0-03-4"
           d="m 396.1868,697.78675 c 0,-14.75255 -0.0283,-14.89553 -4.375,-22.11397 -2.40625,-3.99597 -4.375,-7.96961 -4.375,-8.83031 0,-0.86071 -1.7557,-6.80005 -3.90155,-13.19853 -3.39231,-10.1152 -3.80732,-12.76303 -3.17966,-20.28661 0.50993,-6.11234 0.11963,-10.8192 -1.3293,-16.03069 -1.72674,-6.21075 -1.81695,-8.51175 -0.57034,-14.54726 0.81447,-3.94326 1.48085,-8.65611 1.48085,-10.473 0,-8.01267 6.1465,-13.25427 13.75749,-11.73207 2.64457,0.52891 3.74251,0.26444 3.74251,-0.90152 0,-3.47411 5.13215,-6.40661 11.37046,-6.49704 4.33004,-0.0628 6.93509,-0.83795 8.9335,-2.65832 1.55157,-1.41334 4.04968,-3.2025 5.55136,-3.97592 3.39642,-1.74926 9.98257,-1.83429 11.02823,-0.14237 0.44567,0.72111 2.39738,-0.35245 4.54492,-2.5 10.14447,-10.14446 25.92273,1.37792 34.21499,24.98617 1.8111,5.15625 4.34969,11.70355 5.64129,14.54956 3.78752,8.34568 3.97696,10.63528 1.87995,22.72163 -2.38215,13.72973 -11.88676,43.6814 -16.27719,51.2939 -2.82277,4.89437 -3.16447,6.96336 -3.4063,20.625 l -0.26879,15.18491 c -34.15644,-1.81487 -23.42596,-11.89197 -63.21242,-0.625 -0.76318,0 -1.25,-5.78285 -1.25,-14.84856 z"
           style="fill:#ffffff;fill-opacity:1;stroke:#000000;stroke-width:2.91359;stroke-miterlimit:4;stroke-dasharray:none;stroke-opacity:1" />
        <path
           sodipodi:nodetypes="cccccsssscc"
           inkscape:connector-curvature="0"
           id="path4497-2-5-1"
           d="m 394.68583,678.90436 c 0.96069,7.97031 1.91889,12.8119 3.28335,9.66205 l 5.3125,0.80273 c 3.73089,0.56358 4.75428,0.42959 3.4375,-0.44726 -1.03125,-0.68675 -3.35753,-1.25758 -5.16797,-1.26758 -2.28288,-0.0133 -3.50073,-0.82303 -3.97656,-2.64258 -0.58182,-2.2249 -0.27222,-2.4974 2.04101,-1.79492 1.5003,0.4556 5.25977,1.05962 8.35352,1.34375 5.58611,0.513 5.57747,0.50624 -1.25,-1.16602 -3.78125,-0.92615 -7.78868,-2.07187 -8.9043,-2.54492 z"
           style="fill:#161616;stroke-width:2.91359;stroke-dasharray:none" />
        <path
           sodipodi:nodetypes="ccccscc"
           inkscape:connector-curvature="0"
           id="path4490-2-9-1"
           d="m 463.71477,676.85217 c -1.43853,0.88869 -6.1954,5.74043 -14.60273,8.224 l -4.375,1.29297 5,-0.55273 c 2.75,-0.30347 6.24707,-0.92307 7.77148,-1.37696 1.63315,-0.48626 2.53007,-0.62196 2.89006,2.45487 1.67851,-5.32801 2.22434,-6.67899 3.31619,-10.04215 z"
           style="fill:#161616;stroke-width:2.91359;stroke-dasharray:none" />
        <path
           sodipodi:nodetypes="sscscccsscssccscccccccssccccssssssssscsccccccssscssssccccsssscccscccscccccsssscscccscssssscssscssssssscccccsccccscsscssscccscscssscc"
           inkscape:connector-curvature="0"
           d="m 424.59961,599.63281 c 0.66711,-0.0849 1.85527,0.76104 3.56445,2.53711 5.03859,5.23574 9.53877,10.74789 9.05274,11.08789 -0.22273,0.15582 -2.51368,1.49077 -5.0918,2.9668 -5.37867,3.07939 -6.42761,1.95519 -1.25,-1.33984 l 3.4375,-2.1875 -3.30469,0.75 c -3.06079,0.69487 -3.45746,0.28337 -5.41406,-5.60743 -1.77194,-5.33482 -2.10599,-8.06552 -0.99414,-8.20703 z m -12.10938,-23.04297 c 1.34397,-0.0371 2.80684,0.51635 4.3711,1.66016 2.29098,1.67521 2.30628,1.95647 0.32031,6.12109 -1.60944,3.37501 -2.78687,4.32487 -5.18359,4.18164 -2.40206,-0.18395 -3.44746,-1.21472 -4.81599,-2.68016 -1.89038,-2.08886 -1.17083,-3.30023 0.74373,-6.22218 1.3041,-1.99031 2.8365,-3.01291 4.56445,-3.06055 z m 67.11524,49.99805 c -0.0717,0.30356 -0.15241,0.61545 -0.21485,0.91211 0.10066,-0.29083 0.1656,-0.59679 0.21485,-0.91211 z m -41.06445,-61.11133 -4.98633,1.42383 c 0.667,0.73095 1.20518,1.79403 1.89648,3.13086 1.09162,2.11097 1.98633,4.70805 1.98633,5.77344 0,1.0654 -0.70313,1.86649 -1.5625,1.77929 -5.21213,-0.52873 -17.64453,-2.28581 -18.72656,-2.64648 -0.70696,-0.23566 0.0716,-2.18478 1.73047,-4.11328 l -6.97071,3.07031 c 2.21634,1.07171 2.00109,1.19467 0.2168,1.26367 -3.3977,0.1314 -7.1875,4.70612 -7.1875,8.67578 0,2.6365 1.44493,4.9236 5.44141,8.60743 2.99367,2.75947 6.56536,5.37371 7.93554,5.80859 1.71358,0.54387 3.1449,3.02555 4.58594,7.95312 3.27166,11.18724 3.20094,13.32518 -0.46289,13.87891 -2.88759,0.43642 -2.93507,0.54571 -0.625,1.43945 1.827,0.70684 1.15399,0.95835 -2.5,0.93164 -2.75,-0.0201 -6.125,-0.48591 -7.5,-1.03515 -2.5,-0.99862 -2.5,-1.00042 0,-1.10742 1.375,-0.0588 3.31307,-0.62214 4.30859,-1.25196 1.18182,-0.74767 0.0244,-0.90409 -3.33789,-0.45312 l -5.15039,0.68945 -2.49804,-8.58789 c -7.37889,-25.37856 -8.86534,-31.1275 -4.46094,-34.47265 -2.77746,2.17618 -3.79083,3.15362 -3.86524,5.21289 -1.42877,-1.20076 -5.86883,-1.45206 -6.30273,-0.27344 2.83679,-0.58961 5.68164,1.21277 5.68164,3.57617 0,1.05596 2.25,9.7838 5,19.39453 2.75,9.61073 5,18.00924 5,18.66211 0,0.65288 -1.26563,1.22514 -2.8125,1.27344 -2.68814,0.084 -2.70196,0.137 -0.3125,1.18554 2.09472,0.91922 1.89208,1.06483 -1.25,0.89454 -6.73693,-0.36509 -8.70881,-1.03136 -6.74414,-2.27539 1.31354,-0.83174 1.05567,-1.10865 -1.04102,-1.12305 -3.89862,-0.0268 -5.93173,-3.89467 -8.96289,-17.04883 -1.40398,-6.97763 -4.94737,-14.54883 -2.58862,-20.29107 -2.14346,1.36701 -3.17275,6.0765 -2.68376,15.34086 0.72874,-2.15623 1.74581,-2.4865 3.079,4.16701 1.90254,11.82306 4.48757,17.56092 9.23047,20.49219 4.59909,2.84239 4.60476,2.85986 1.53906,3.80859 -1.77202,0.54838 -0.42466,0.64769 3.17188,0.23437 7.79312,-0.89559 10.625,-2.36576 10.625,-5.51562 0,-2.88954 -0.23086,-2.84334 4.97852,-1.02734 l 4.10156,1.43164 -2.97852,1.74609 c -2.39287,1.4039 -2.48537,1.62532 -0.47656,1.12891 1.375,-0.33978 4.06544,-0.99022 5.98047,-1.44727 l 3.48242,-0.83203 -2.43164,4.20898 c -1.3372,2.31504 -3.11242,7.58399 -3.94531,11.70899 -0.83289,4.125 -2.29022,8.61069 -3.23828,9.96679 -0.94808,1.35609 -1.67333,3.88734 -1.61133,5.625 0.0964,2.70022 0.30015,2.52241 1.39648,-1.21679 l 1.28321,-4.375 1.56054,6.03711 c 0.85893,3.32063 2.50828,6.97688 3.66406,8.125 1.96851,1.95546 1.97054,1.77379 0.0293,-2.89063 -4.15696,-9.98834 -1.27613,-28.36246 5.87305,-37.45117 2.86634,-3.64397 11.80677,-8.6654 13.53125,-7.59961 0.62329,0.38521 0.66477,2.25916 0.0937,4.25 -0.9271,3.2326 0.0694,13.1846 1.45898,14.57422 0.31367,0.31368 0.52521,-3.22353 0.47071,-7.86133 l -0.0977,-8.43359 5.05273,0.36914 c 2.77962,0.20234 6.43587,-0.18498 8.125,-0.85938 2.59541,-1.03622 2.02177,-1.23768 -3.70507,-1.30468 -4.4605,-0.0521 -7.55786,-0.78676 -9.0625,-2.14844 -2.74622,-2.48529 -2.9425,-4.18164 -0.48438,-4.18164 0.99067,0 2.09937,-0.48017 2.46289,-1.06836 0.36352,-0.5882 -0.62379,-0.82543 -2.19336,-0.52539 -2.20337,0.4212 -3.92262,-0.7561 -7.54101,-5.17188 -2.57755,-3.14556 -4.34081,-6.27804 -3.91992,-6.95898 0.47512,-0.76878 -0.64152,-0.95646 -2.94336,-0.4961 -2.69114,0.53823 -5.44897,-0.20579 -10.0625,-2.71679 -6.71362,-3.65401 -8.40639,-6.12515 -3.32422,-4.84961 2.64181,0.66306 3.33765,0.0664 5.44531,-4.66406 1.38068,-3.09974 1.96909,-5.99915 1.37305,-6.76758 -0.74166,-0.95616 0.93548,-0.98609 5.80468,-0.10352 5.61116,1.01707 6.87808,1.71023 7.01758,3.84375 0.15781,2.41364 0.20873,2.39843 0.71094,-0.20898 0.65435,-3.39733 5.29504,-3.92336 5.51367,-0.625 0.1381,2.08333 0.17237,2.08333 0.7168,0 0.67624,-2.58774 3.27559,-2.85689 5.19922,-0.53907 1.01113,1.21835 0.83326,2.43979 -0.6836,4.6875 l -2.05078,3.03907 3.08399,-2.79297 3.08593,-2.79492 6.40039,6.54492 c 3.52048,3.59923 10.52881,10.57646 14.48243,16.32812 8.33032,12.11883 11.09041,17.40518 10.53906,20.93555 1.18089,-5.00145 3.46481,-10.86756 2.39453,-15.64648 -0.44465,-1.83734 -1.63075,-3.18691 -3.5332,-7.37891 l 1.26758,10.74219 c 0.0962,1.89062 -0.10146,3.4375 -0.4375,3.4375 -0.57815,0 -1.06483,-3.32794 -0.77149,-5.27539 0.0746,-0.49511 -1.05849,-1.53839 -2.51953,-2.32032 -2.12361,-1.13652 -2.30988,-1.64296 -0.92578,-2.51953 1.41262,-0.89462 1.36498,-1.09963 -0.26172,-1.11523 -1.09658,-0.0105 -3.04383,-1.17873 -4.32617,-2.5957 -1.85159,-2.04598 -1.99292,-2.78575 -0.68555,-3.59375 1.15445,-0.71349 1.23383,-1.27151 0.26367,-1.8711 -0.7609,-0.47026 -1.41959,-0.39995 -1.46289,0.15625 -0.10373,1.33328 -4.35797,-11.65853 -5.4375,-16.60351 -0.85985,-4.07235 -1.67594,-6.19834 -2.9375,-9.49219 -2.85301,-7.55851 -2.58861,-2.84982 0.42383,7.55078 1.66208,5.7384 2.71001,10.93869 2.32813,11.55664 -0.38192,0.61794 -0.16547,1.12305 0.48242,1.12305 0.64789,0 1.47245,1.125 1.83203,2.5 0.35966,1.375 0.55173,2.5 0.42578,2.5 -0.12595,0 -4.09345,-3.89099 -8.81445,-8.64844 -4.721,-4.75745 -10.45826,-9.66035 -12.75,-10.89453 -4.7632,-2.56516 -7.25943,-8.40836 -5.61914,-12.72266 z"
           style="fill:#000000;fill-opacity:1;stroke-width:2.91359;stroke-dasharray:none"
           id="path4597-9-4-91" />
        <path
           sodipodi:nodetypes="ccsscc"
           inkscape:connector-curvature="0"
           id="path4569-7-8-3"
           d="m 381.16729,635.4883 c -0.0726,-1.36014 -0.0412,-2.54743 0.11523,-3.51172 0.52692,-3.24703 1.30483,-4.24238 3.33594,-4.27148 2.32365,-0.0333 2.39326,-0.18816 0.55664,-1.25977 -1.5323,-0.89405 -4.14187,-5.00659 -4.8732,-7.95117 z"
           style="fill:#000000;fill-opacity:1;stroke-width:2.91359;stroke-dasharray:none" />
      </g>
      <path
         style="fill:#f1c27d;fill-opacity:0.889401;stroke:#000000;stroke-width:0.251;stroke-linecap:butt;stroke-linejoin:miter;stroke-dasharray:none;stroke-opacity:1"
         d="m 151.25548,191.58495 c -0.20094,-0.0267 -0.6863,-0.13035 -1.0786,-0.23035 -0.68865,-0.17556 -0.72947,-0.1818 -1.18298,-0.18099 -0.52718,0.001 -0.85538,0.0513 -1.67373,0.25697 -0.2946,0.074 -0.54177,0.12849 -0.54925,0.12103 -0.007,-0.007 -0.0215,-0.42282 -0.0311,-0.92302 -0.0169,-0.88023 -0.0154,-0.90885 0.0484,-0.89053 0.13273,0.0381 0.71172,0.10277 0.73268,0.0818 0.0711,-0.0711 -0.23286,-0.19725 -0.47516,-0.19725 -0.13031,0 -0.29685,-0.0806 -0.32659,-0.15813 -0.0119,-0.031 -0.0216,-0.096 -0.0216,-0.14452 0,-0.0747 0.012,-0.0849 0.0783,-0.0665 0.30197,0.0839 1.21636,0.19044 1.15688,0.13485 -0.0191,-0.0179 -0.26182,-0.0911 -0.5393,-0.16274 -0.77357,-0.19969 -0.74336,-0.17965 -1.03277,-0.68514 -0.3303,-0.5769 -0.33966,-0.5973 -0.42358,-0.92302 -0.0401,-0.15559 -0.15834,-0.54702 -0.26279,-0.86984 -0.31302,-0.96741 -0.32842,-1.06051 -0.30757,-1.86002 0.008,-0.32001 0.0123,-0.3353 0.0973,-0.37403 0.0487,-0.0222 0.12702,-0.0404 0.17396,-0.0404 0.0469,0 0.0854,-0.009 0.0854,-0.0205 0,-0.0113 -0.0665,-0.0858 -0.14787,-0.16557 -0.1845,-0.18099 -0.20421,-0.22552 -0.31914,-0.72069 -0.12993,-0.55985 -0.1391,-0.72322 -0.0633,-1.12865 0.0799,-0.4277 0.10429,-0.40194 0.2327,0.24625 0.19005,0.95931 0.37424,1.33252 0.80214,1.62525 0.13395,0.0916 0.24799,0.17934 0.25342,0.19489 0.005,0.0156 -0.0494,0.0526 -0.12177,0.0823 l -0.13165,0.054 0.19621,0.003 c 0.25534,0.004 0.73783,-0.088 0.905,-0.17326 0.15289,-0.078 0.20333,-0.15632 0.20407,-0.31688 0.001,-0.20265 0.023,-0.20804 0.37422,-0.0914 0.17661,0.0587 0.3211,0.11642 0.32108,0.12832 -2e-5,0.0119 -0.0783,0.0656 -0.17397,0.11932 -0.0957,0.0537 -0.17393,0.11244 -0.17393,0.13047 0,0.018 0.007,0.0328 0.0146,0.0328 0.0183,0 0.74659,-0.17202 0.82892,-0.19579 0.047,-0.0136 0.0293,0.0407 -0.0781,0.23983 -0.17188,0.31865 -0.24794,0.53668 -0.40172,1.15151 -0.0663,0.26526 -0.1774,0.60188 -0.2468,0.74806 -0.0877,0.18476 -0.13152,0.33206 -0.14369,0.48324 -0.0243,0.30206 0.0403,0.282 0.13904,-0.0432 0.0435,-0.14334 0.0879,-0.26077 0.0985,-0.26095 0.0107,-1.7e-4 0.046,0.11066 0.0786,0.24631 0.084,0.34999 0.25522,0.74238 0.38184,0.87508 0.14547,0.15246 0.16197,0.0711 0.0443,-0.21845 -0.19278,-0.47444 -0.24292,-1.07033 -0.14186,-1.68612 0.13943,-0.84967 0.44674,-1.49668 0.863,-1.81698 0.27773,-0.21371 0.7075,-0.43355 0.82165,-0.42029 0.0825,0.01 0.0894,0.0226 0.0801,0.14967 -0.0566,0.7691 0.031,1.59127 0.15622,1.46612 0.0154,-0.0154 0.028,-0.3359 0.028,-0.71225 v -0.68429 l 0.5219,-7e-5 c 0.44317,-7e-5 0.53986,-0.01 0.64094,-0.0649 0.16611,-0.0904 0.10115,-0.11386 -0.37999,-0.13711 -0.5039,-0.0244 -0.64447,-0.0658 -0.80895,-0.23819 -0.18143,-0.19022 -0.16421,-0.27303 0.0568,-0.27303 0.086,0 0.16068,-0.0598 0.16068,-0.12874 0,-0.0312 -0.0552,-0.0452 -0.17856,-0.0452 -0.23176,0 -0.35502,-0.0775 -0.59618,-0.37483 -0.26484,-0.32654 -0.38214,-0.5148 -0.38214,-0.61332 0,-0.0829 -0.006,-0.0846 -0.35228,-0.0964 -0.33524,-0.0115 -0.36677,-0.0193 -0.65159,-0.16275 -0.33627,-0.16932 -0.64415,-0.38762 -0.62079,-0.44017 0.009,-0.0191 0.0233,-0.0323 0.0329,-0.0293 0.01,0.003 0.0913,0.0165 0.18156,0.0299 0.15015,0.0223 0.1726,0.0159 0.26309,-0.0751 0.13697,-0.13771 0.32389,-0.60118 0.32877,-0.81518 0.005,-0.2031 -0.0136,-0.1991 0.47479,-0.10443 0.50738,0.0984 0.59584,0.15627 0.59584,0.39013 0,0.13603 0.0554,0.0988 0.0846,-0.0568 0.028,-0.14917 0.14074,-0.2612 0.26289,-0.2612 0.1217,0 0.17436,0.0599 0.17436,0.19832 0,0.15484 0.0473,0.14471 0.11371,-0.0244 0.0301,-0.0766 0.0808,-0.14924 0.11282,-0.16151 0.0895,-0.0344 0.29043,0.0775 0.315,0.17541 0.0286,0.11385 -10e-5,0.1935 -0.14616,0.40581 -0.0673,0.0979 -0.115,0.18541 -0.10592,0.19449 0.009,0.009 0.13088,-0.0865 0.27067,-0.21242 0.13979,-0.1259 0.26676,-0.22472 0.28215,-0.21959 0.0608,0.0203 1.37103,1.41568 1.57572,1.67816 0.30268,0.38815 0.75981,1.09392 0.92911,1.43448 l 0.14177,0.28517 -0.0584,0.32371 c -0.18407,1.02076 -0.87265,3.2313 -1.27182,4.08285 -0.14121,0.30126 -0.18797,0.36715 -0.33952,0.47839 -0.24209,0.17771 -0.67199,0.3861 -0.98411,0.47703 -0.27267,0.0794 -0.40868,0.15386 -0.22507,0.12315 0.0568,-0.01 0.2473,-0.0345 0.42332,-0.0556 0.17601,-0.0211 0.41087,-0.0595 0.5219,-0.0855 0.11103,-0.0259 0.21198,-0.0365 0.22433,-0.0234 0.0123,0.0131 0.009,0.22737 -0.007,0.47614 -0.0162,0.24877 -0.0303,0.75371 -0.0311,1.12209 l -0.002,0.66977 -0.16527,-0.004 c -0.0909,-0.002 -0.32967,-0.0254 -0.5306,-0.0521 z"
         id="path155506-4-4-8" />
      <path
         style="fill:#f1c27d;fill-opacity:0.889401;stroke:#000000;stroke-width:0.251;stroke-linecap:butt;stroke-linejoin:miter;stroke-dasharray:none;stroke-opacity:1"
         d="m 146.80192,184.30018 c -0.12439,-0.0132 -0.26272,-0.0359 -0.30742,-0.0505 l -0.0813,-0.0266 0.0729,-0.0776 c 0.0905,-0.0963 0.0648,-0.12461 -0.11291,-0.12461 -0.11558,0 -0.15992,-0.0223 -0.26541,-0.13313 -0.0696,-0.0732 -0.16258,-0.22588 -0.2065,-0.33924 -0.0949,-0.24501 -0.51361,-1.8537 -0.54601,-2.09798 -0.0622,-0.46906 0.29894,-0.8742 0.7793,-0.8742 0.30165,0 0.38037,0.0383 0.40808,0.19849 0.0414,0.23912 0.19056,0.81158 0.52292,2.00658 0.1803,0.64826 0.32782,1.20771 0.32782,1.2432 0,0.0648 -0.0185,0.0728 -0.29575,0.1293 l -0.13917,0.0283 0.13917,0.0744 c 0.13873,0.0741 0.13884,0.0743 0.0348,0.071 -0.0574,-0.002 -0.20615,-0.0142 -0.33054,-0.0274 z"
         id="path157164-3-6-7" />
      <path
         style="fill:#f1c27d;fill-opacity:0.889401;stroke:#000000;stroke-width:0.251;stroke-linecap:butt;stroke-linejoin:miter;stroke-dasharray:none;stroke-opacity:1"
         d="m 148.10667,183.96239 c -0.0383,-0.009 -0.12438,-0.0334 -0.19136,-0.0551 l -0.12178,-0.0395 0.16234,-0.0245 c 0.19075,-0.0288 0.36131,-0.10359 0.34873,-0.1529 -0.005,-0.0209 -0.1025,-0.0285 -0.24258,-0.0191 -0.12853,0.009 -0.29606,0.0165 -0.37228,0.0174 l -0.13859,0.002 -0.3036,-1.05392 c -0.32069,-1.11324 -0.48052,-1.76544 -0.48028,-1.9599 2.4e-4,-0.20397 0.11265,-0.4567 0.24186,-0.54377 0.15283,-0.10299 0.42601,-0.18274 0.62545,-0.18257 l 0.15895,1.3e-4 -0.11202,0.0683 c -0.14362,0.0876 -0.3127,0.32107 -0.36019,0.49741 -0.0787,0.29245 0.0527,0.57123 0.43208,0.91644 0.23674,0.21541 0.62128,0.50081 0.67479,0.50081 0.0618,0 0.21023,0.17422 0.28638,0.33622 0.11265,0.23965 0.31555,1.0131 0.32146,1.22537 0.006,0.21504 -0.041,0.27034 -0.25945,0.30527 -0.17047,0.0273 -0.19114,0.0654 -0.0708,0.13072 0.092,0.0499 0.0815,0.0523 -0.21643,0.0498 -0.17223,-0.001 -0.34445,-0.01 -0.38273,-0.0183 z"
         id="path157166-5-9-4" />
      <path
         style="fill:#f1c27d;fill-opacity:0.889401;stroke:#000000;stroke-width:0.251;stroke-linecap:butt;stroke-linejoin:miter;stroke-dasharray:none;stroke-opacity:1"
         d="m 149.30704,180.05213 c -0.77586,-0.10658 -0.93942,-0.13935 -0.93942,-0.1882 0,-0.0643 0.40255,-0.38708 0.61058,-0.48965 0.10587,-0.0522 0.26484,-0.0943 0.40012,-0.10585 0.36731,-0.0315 0.53281,0.10696 0.67738,0.56658 0.0998,0.31732 0.0616,0.32841 -0.74866,0.21712 z"
         id="path157168-6-2-9" />
      <path
         style="fill:#f1c27d;fill-opacity:0.889401;stroke:#000000;stroke-width:0.251;stroke-linecap:butt;stroke-linejoin:miter;stroke-dasharray:none;stroke-opacity:1"
         d="m 153.68002,183.3772 c -0.0154,-0.11482 -0.0311,-0.23169 -0.0349,-0.25973 -0.006,-0.0445 -0.13984,-0.15323 -0.30184,-0.24499 -0.044,-0.0249 -0.0401,-0.0421 0.0261,-0.11253 0.099,-0.10539 0.0982,-0.13081 -0.004,-0.13081 -0.14231,0 -0.5043,-0.28741 -0.50811,-0.40343 -6.6e-4,-0.0209 0.0301,-0.0664 0.0683,-0.10107 0.0383,-0.0346 0.0696,-0.0835 0.0696,-0.10855 0,-0.0542 -0.12715,-0.12914 -0.17203,-0.10141 -0.0517,0.032 -0.32076,-0.76765 -0.50327,-1.49587 -0.13301,-0.53073 -0.32949,-1.02545 -0.40724,-1.02545 -0.0533,0 -0.0175,0.18632 0.19849,1.03495 0.1035,0.40657 0.18818,0.80974 0.18818,0.89593 0,0.1149 0.0137,0.15672 0.0513,0.15672 0.0555,0 0.15746,0.16982 0.15746,0.26232 0,0.0329 -0.25423,-0.18587 -0.60018,-0.51637 -0.65399,-0.62478 -0.90633,-0.84233 -1.22793,-1.05864 -0.23811,-0.16016 -0.38058,-0.34425 -0.45324,-0.5857 -0.0815,-0.27074 -0.07,-0.30807 0.15026,-0.48808 0.11003,-0.0899 0.25044,-0.18473 0.31202,-0.21067 0.2743,-0.11554 0.64644,-0.0192 1.01882,0.26368 0.5398,0.4101 0.96007,1.09011 1.37762,2.22908 0.10875,0.29661 0.28191,0.73932 0.38482,0.9838 0.21836,0.51875 0.26306,0.69915 0.24852,1.00304 l -0.0107,0.22254 z"
         id="path157170-1-9-3" />
      <path
         style="fill:#81520e;fill-opacity:0.889401;stroke:#000000;stroke-width:0.251;stroke-linecap:butt;stroke-linejoin:miter;stroke-dasharray:none;stroke-opacity:1"
         d="m 149.32479,183.56801 c 0.012,-0.0194 0.13947,-0.11473 0.28323,-0.21173 0.14376,-0.097 0.2561,-0.18166 0.24965,-0.18811 -0.006,-0.006 -0.10981,0.0109 -0.22968,0.0386 -0.15402,0.0356 -0.23739,0.0399 -0.28425,0.0149 -0.12938,-0.0692 -0.43821,-1.03995 -0.35677,-1.12139 0.0574,-0.0574 0.16536,0.0273 0.50802,0.39851 0.36708,0.39762 0.58986,0.68925 0.5529,0.72379 -0.0152,0.0142 -0.16784,0.10565 -0.33926,0.20328 -0.29738,0.16938 -0.43132,0.21898 -0.38384,0.14217 z"
         id="path157172-4-0-1" />
      <path
         style="fill:#81520e;fill-opacity:0.889401;stroke:#000000;stroke-width:0.251;stroke-linecap:butt;stroke-linejoin:miter;stroke-dasharray:none;stroke-opacity:1"
         d="m 147.68527,180.99717 c -0.15974,-0.0974 -0.26867,-0.26551 -0.24169,-0.37299 0.033,-0.1315 0.17174,-0.33659 0.30163,-0.44588 0.0979,-0.0824 0.13718,-0.094 0.26811,-0.0792 0.18149,0.0205 0.43642,0.18573 0.45201,0.29304 0.0122,0.0841 -0.17357,0.47548 -0.28152,0.59306 -0.0928,0.10111 -0.34254,0.10713 -0.49854,0.012 z"
         id="path158899-0-3-3" />
    </g>
  </g>
</svg>
