<?xml version="1.0" encoding="UTF-8" standalone="no"?>
<!-- Created with Inkscape (http://www.inkscape.org/) -->

<svg
   width="20.493484mm"
   height="20.4935mm"
   viewBox="0 0 20.493484 20.4935"
   version="1.1"
   id="svg91729"
   sodipodi:docname="buttons-zoom.svg"
   xmlns:inkscape="http://www.inkscape.org/namespaces/inkscape"
   xmlns:sodipodi="http://sodipodi.sourceforge.net/DTD/sodipodi-0.dtd"
   xmlns="http://www.w3.org/2000/svg"
   xmlns:svg="http://www.w3.org/2000/svg">
  <sodipodi:namedview
     id="namedview91731"
     pagecolor="#ffffff"
     bordercolor="#000000"
     borderopacity="0.25"
     inkscape:showpageshadow="2"
     inkscape:pageopacity="0.0"
     inkscape:pagecheckerboard="0"
     inkscape:deskcolor="#d1d1d1"
     inkscape:document-units="mm"
     showgrid="true"
     inkscape:lockguides="false"
     inkscape:zoom="0.4204826"
     inkscape:cx="323.43788"
     inkscape:cy="541.04498"
     inkscape:window-width="2560"
     inkscape:window-height="1499"
     inkscape:window-x="0"
     inkscape:window-y="0"
     inkscape:window-maximized="1"
     inkscape:current-layer="layer1">
    <inkscape:grid
       type="xygrid"
       id="grid92220" />
  </sodipodi:namedview>
  <defs
     id="defs91726">
    <filter
       style="color-interpolation-filters:sRGB"
       inkscape:label="Drop Shadow"
       id="filter106782-7-27-2-8-0-0"
       x="-0.056692921"
       y="-0.056692921"
       width="1.176378"
       height="1.176378">
      <feFlood
         flood-opacity="1"
         flood-color="rgb(0,0,0)"
         result="flood"
         id="feFlood106772-9-0-4-1-9-6" />
      <feComposite
         in="flood"
         in2="SourceGraphic"
         operator="in"
         result="composite1"
         id="feComposite106774-9-3-5-2-9-4" />
      <feGaussianBlur
         in="composite1"
         stdDeviation="1.5"
         result="blur"
         id="feGaussianBlur106776-3-4-1-4-8-4" />
      <feOffset
         dx="4"
         dy="4"
         result="offset"
         id="feOffset106778-2-63-7-7-0-3" />
      <feComposite
         in="SourceGraphic"
         in2="offset"
         operator="over"
         result="composite2"
         id="feComposite106780-4-6-5-8-2-7" />
    </filter>
  </defs>
  <g
     inkscape:label="Layer 1"
     inkscape:groupmode="layer"
     id="layer1"
     transform="translate(-135.63571,-230.48292)">
    <g
       id="g212600">
      <rect
         style="fill:#c0ced8;fill-opacity:1;stroke:#737373;stroke-width:0;stroke-linecap:round;stroke-linejoin:round;filter:url(#filter106782-7-27-2-8-0-0)"
         id="rect106253-7-7-9-3-4-8"
         width="63.5"
         height="63.5"
         x="26.641663"
         y="20.787777"
         ry="1.2715656e-06"
         transform="matrix(0.2743439,0,0,0.2743439,129.31437,225.76757)" />
      <g
         transform="matrix(0.00345917,0,0,-0.00324513,136.88497,248.10313)"
         fill="#000000"
         stroke="none"
         id="g163579-4-9">
        <path
           d="m 2612,4742 c -39,-12 -94,-63 -112,-106 -23,-52 -37,-160 -45,-356 -8,-184 -18,-273 -44,-395 -11,-49 -29,-188 -41,-308 -25,-255 -39,-345 -51,-326 -5,8 -9,59 -9,114 -1,160 -16,267 -69,475 -29,111 -55,240 -61,300 -22,213 -30,261 -50,300 -29,56 -73,82 -131,77 -57,-5 -93,-30 -119,-83 -25,-51 -26,-105 -1,-349 11,-105 22,-239 26,-300 3,-60 13,-184 21,-275 8,-91 15,-220 17,-288 2,-120 1,-124 -22,-143 -13,-11 -31,-19 -40,-17 -49,10 -315,464 -392,670 -58,156 -90,213 -132,239 -65,39 -141,14 -167,-56 -29,-75 -3,-211 70,-375 20,-47 58,-141 83,-210 25,-69 75,-189 111,-267 36,-78 73,-159 83,-180 15,-34 17,-76 18,-358 0,-398 9,-457 122,-800 52,-160 55,-174 50,-240 -7,-81 -41,-204 -98,-354 -24,-64 -47,-153 -60,-226 -40,-237 -29.9744,-253.0461 -77.4532,-427.84772 l 2.0226,-9.40905 92.7777,-2.23878 c 68.9008,-1.66261 7.5492,37.55188 20.3999,80.95459 C 1669.4756,758.32251 1614,617 1659,877 c 17,95 34,180 39,190 8,14 75,196 108,292 3,9 12,2 27,-20 48,-73 147,-87 252,-38 49,23 49,24 20,27 -88,8 -138,25 -175,58 -35,31 -69,94 -52,94 4,0 32,-7 62,-15 87,-23 102,-19 44,14 -140,81 -238,266 -308,581 -42,190 -61,420 -37,435 6,3 37,-12 70,-34 33,-21 73,-42 88,-46 l 28,-7 -35,-14 -35,-14 40,6 c 68,10 190,81 268,156 l 72,68 -75,-55 c -102,-76 -171,-108 -241,-113 -56,-4 -58,-3 -104,39 -26,24 -55,60 -66,81 -26,50 -25,132 1,183 l 20,40 -21,50 c -12,27 -65,145 -119,260 -54,116 -118,269 -143,340 -25,72 -57,153 -70,180 -38,79 -77,203 -77,249 0,80 51,110 104,61 32,-29 78,-126 99,-208 l 15,-57 -31,-25 c -32,-25 -23,-34 14,-15 11,6 24,8 30,4 17,-10 -20,-43 -58,-50 -24,-4 -31,-10 -24,-17 7,-7 25,-5 56,8 25,9 48,16 49,14 2,-2 31,-51 65,-109 l 62,-105 -48,-21 c -26,-12 -57,-32 -68,-44 -17,-19 -11,-18 48,11 67,33 69,34 83,15 17,-24 15,-26 -67,-77 -35,-21 -60,-39 -55,-39 12,0 96,48 119,68 12,11 21,13 25,6 16,-24 73,-115 123,-196 39,-64 62,-91 83,-98 16,-6 27,-12 25,-14 -2,-2 -38,-27 -79,-54 -64,-43 -164,-132 -119,-106 89,51 230,146 257,173 57,57 66,89 64,241 -1,74 -7,178 -12,230 -5,52 -14,169 -20,260 -5,91 -13,185 -16,209 -6,41 -5,44 12,35 23,-10 123,-11 144,-1 13,6 23,-21 58,-165 23,-95 42,-177 42,-181 0,-4 -10,-2 -22,4 -25,14 -125,7 -158,-11 -31,-17 -21,-20 25,-10 52,12 126,12 145,0 12,-7 12,-12 -4,-28 -21,-24 -87,-42 -153,-42 -35,0 -44,-3 -33,-10 22,-14 119,-11 165,5 22,8 40,15 41,15 1,0 4,-89 7,-197 3,-109 8,-205 12,-214 5,-13 -4,-19 -47,-29 -53,-13 -158,-55 -158,-63 0,-3 26,3 58,13 32,10 94,26 138,35 l 80,18 36,56 c 20,31 41,76 47,101 13,54 61,456 61,514 1,23 7,68 15,101 8,33 19,107 25,165 6,58 13,119 16,137 l 5,32 37,-16 c 25,-10 54,-14 89,-10 l 53,6 v -183 -182 l -89,4 c -53,3 -96,0 -107,-7 -15,-8 3,-10 76,-11 116,0 132,-8 108,-47 -16,-27 -21,-28 -110,-33 -117,-7 -95,-25 30,-25 81,0 82,0 82,-25 0,-46 -30,-280 -45,-352 -8,-39 -12,-81 -9,-93 5,-22 2,-23 -88,-31 l -93,-9 130,-7 c 72,-4 151,-11 177,-16 30,-5 58,-5 79,2 43,14 67,62 142,283 l 58,169 67,-33 c 37,-18 82,-34 100,-35 17,-1 32,-3 32,-4 0,-1 -40,-91 -89,-201 -49,-109 -97,-223 -108,-253 -18,-51 -21,-55 -49,-52 -16,2 -63,21 -103,42 -41,22 -77,38 -79,35 -2,-2 35,-30 84,-62 113,-75 146,-116 152,-188 6,-68 -8,-90 -103,-172 -38,-33 -86,-78 -105,-98 -27,-29 -16,-23 50,27 91,69 175,128 184,128 2,0 19,-28 36,-62 18,-35 41,-75 51,-90 l 19,-27 -55,20 c -30,10 -69,19 -87,18 -27,-1 -23,-3 23,-14 117,-29 239,-124 239,-187 v -31 l 53,47 c 28,26 81,66 117,89 36,24 84,67 109,98 l 45,56 39,-28 c 55,-40 65,-36 17,7 -38,34 -58,69 -46,81 3,3 39,-19 79,-50 79,-61 87,-65 87,-44 0,19 -35,49 -102,89 l -56,34 25,52 c 60,127 178,211 327,232 123,18 200,-5 194,-58 -2,-20 -26,-44 -103,-102 -121,-91 -223,-191 -250,-245 -11,-22 -43,-78 -71,-125 -74,-122 -91,-159 -115,-247 -24,-87 -47,-131 -88,-166 -16,-13 -36,-37 -45,-53 l -16,-29 6,28 c 7,31 -3,35 -22,10 -11,-15 -14,-15 -14,-3 -1,8 -7,53 -15,100 l -14,85 4,-80 c 2,-44 7,-100 11,-125 6,-44 3,-50 -57,-140 -80,-121 -221,-262 -320,-324 -111,-68 -177,-90 -276,-90 -46,-1 -83,-4 -83,-7 0,-12 56,-58 83,-68 16,-6 42,-11 58,-11 17,0 28,-4 25,-9 -13,-20 -159,-30 -209,-15 -44,13 67,-88 128,-117 101,-48 10,-36 -181,22 l -100,31 -90,-30 c -90,-31 -259,-74 -434,-110 l -95,-20 60,-1 c 33,0 163,15 289,33 255,38 214,40 440,-23 109,-31 146,-46 90,-36 -149,25 -431,40 -549,30 l -90,-9 60,-8 c 33,-4 110,-15 170,-23 179,-25 322,-63 358,-95 40,-36 39,-64 -7,-235 -55,-197 -13.4417,-46.06005 -78.0054,-282.83724 l -3.645,-32.6179 51.0239,-2.98504 28.1943,-1.05537 16.238,77.03094 C 2804.4679,862.71746 2840,875 2944,1104 c 65,142 119,210 331,421 164,163 217,223 286,323 119,173 149,224 203,351 111,258 224,438 376,596 61,64 115,127 120,141 25,66 -5,130 -76,165 -41,19 -56,21 -143,16 -144,-9 -234,-43 -319,-120 -64,-59 -117,-146 -149,-244 -32,-98 -65,-142 -137,-183 -57,-33 -93,-37 -135,-15 -65,33 -148,158 -170,256 -6,24 -11,88 -11,141 0,83 4,109 29,175 30,81 108,261 184,423 47,101 82,203 173,500 67,219 78,314 45,367 -43,68 -113,88 -186,53 -85,-41 -146,-156 -200,-371 -18,-72 -48,-151 -100,-259 -50,-104 -98,-227 -145,-372 -50,-154 -77,-221 -90,-228 -31,-16 -85,-12 -104,9 -16,18 -15,28 9,192 51,345 53,369 60,772 6,393 6,399 -15,442 -32,66 -108,105 -168,87 z m 62,-63 c 45,-21 60,-70 53,-178 -8,-126 -25,-206 -48,-227 -10,-9 -42,-19 -70,-22 -65,-6 -45,-22 29,-22 28,0 52,-4 52,-9 0,-17 -83,-23 -125,-9 l -40,13 v 165 c 0,191 14,247 69,281 36,22 46,23 80,8 z m -623,-229 c 31,-17 49,-64 59,-162 15,-149 15,-229 0,-238 -7,-4 -39,-13 -71,-20 -32,-7 -57,-16 -54,-20 4,-7 87,3 126,15 31,10 21,-26 -11,-42 -62,-31 -135,-8 -149,46 -16,58 -35,303 -27,343 14,74 69,108 127,78 z m 1403,-21 c 32,-15 50,-60 42,-108 -5,-36 -81,-232 -112,-293 -18,-34 -38,-35 -105,-7 -35,15 -51,29 -55,46 -13,48 60,267 104,317 21,23 73,56 89,56 7,0 23,-5 37,-11 z m -139,-454 c 58,-13 57,-11 40,-52 -9,-21 -30,-90 -46,-153 -36,-137 -57,-200 -69,-200 -15,0 -102,31 -147,52 -33,16 -43,26 -43,44 0,21 5,24 35,24 19,0 65,-11 102,-25 48,-18 63,-21 53,-10 -23,22 -130,57 -157,50 -12,-3 -23,-3 -23,0 0,3 27,59 60,124 33,66 60,121 60,124 0,2 7,21 15,41 l 15,36 38,-24 c 20,-14 51,-28 67,-31 z"
           id="path163557-3-7"
           sodipodi:nodetypes="ccccccccccccccscccccccssccccccccsscccccccscccccccccccccsccccccccscccccccscccccccccsccccsccscscccccscccccsscscccsscccccssccccccccccccsscccccccccccsccccccccccsccccccscccccccscsccccccscccccccccccccccscsccccccccccccccccccccccccccccccccscccsccccccccccccccccccssccscccccsccscccccccccsccccscsscccscscccc" />
        <path
           d="m 1580,3220 c -30,-16 -49,-29 -42,-30 21,0 76,26 91,43 17,22 16,21 -49,-13 z"
           id="path163559-7-38" />
        <path
           d="m 2479,2771 c -94,-73 -125,-100 -114,-101 10,0 138,100 175,136 29,29 1,13 -61,-35 z"
           id="path163561-2-0" />
        <path
           d="m 2813,2755 c -221,-80 -499,-271 -665,-455 -101,-113 -106,-136 -9,-41 180,177 446,370 626,455 50,23 106,49 125,58 57,27 22,19 -77,-17 z"
           id="path163563-7-9" />
        <path
           d="m 2947,2422 c -203,-109 -334,-236 -412,-397 -55,-114 -74,-193 -81,-325 -7,-121 10,-217 52,-287 22,-38 60,-71 70,-61 2,2 -10,38 -25,79 -43,111 -55,184 -48,312 13,272 127,439 447,656 57,39 100,71 94,71 -5,0 -49,-22 -97,-48 z"
           id="path163565-3-2" />
        <path
           d="m 3410,2468 c 0,-2 7,-25 15,-52 8,-27 15,-63 16,-80 1,-30 1,-30 11,7 14,50 0,120 -25,125 -9,2 -17,2 -17,0 z"
           id="path163567-3-3" />
        <path
           d="m 2568,2338 c -12,-18 -81,-103 -152,-188 -152,-182 -235,-306 -275,-410 -47,-122 -46,-142 2,-45 57,115 144,247 267,405 113,147 139,182 169,233 28,46 21,49 -11,5 z"
           id="path163569-9-1" />
        <path
           d="m 2879,2263 c -42,-43 -90,-96 -107,-119 -76,-99 -143,-280 -141,-383 v -46 l 19,70 c 49,188 116,313 255,480 83,100 73,99 -26,-2 z"
           id="path163571-2-8" />
        <path
           d="m 2225,1098 c -8,-28 -46,-280 -42,-284 10,-10 51,157 55,224 4,64 -2,94 -13,60 z"
           id="path163573-4-7" />
        <path
           d="m 2427,877 c -6,-46 -38.3379,-206.10877 -59.3379,-281.10877 -11,-40 4.8591,-28.03258 30.8591,38.96742 C 2452.5212,776.85865 2463,858 2441,915 c -6,14 -10,4 -14,-38 z"
           id="path163575-4-4"
           sodipodi:nodetypes="ccccc" />
      </g>
      <path
         style="fill:none;fill-opacity:1;stroke:#000000;stroke-width:0.16416;stroke-linecap:butt;stroke-linejoin:miter;stroke-dasharray:none;stroke-opacity:1"
         d="m 142.34639,246.4975 c 1.11206,-0.28522 2.15388,-0.3202 3.79718,0.0175"
         id="path165326-4-1"
         sodipodi:nodetypes="cc" />
      <path
         style="fill:#f3c98b;fill-opacity:1;stroke:#000000;stroke-width:0.002565;stroke-linecap:butt;stroke-linejoin:miter;stroke-dasharray:none;stroke-opacity:1"
         d="m 146.55271,244.45561 c -0.39173,-0.0595 -0.8848,-0.0978 -1.41711,-0.11013 -0.24574,-0.006 -0.43299,-0.001 -0.599,0.0149 -0.13447,0.0129 -0.1278,0.0129 -0.1278,1.5e-4 0,-0.007 -0.004,-0.0129 -0.0119,-0.0176 -0.0106,-0.007 -0.0268,-0.008 -0.14432,-0.009 l -0.13241,-0.002 0.0837,-0.01 c 0.19176,-0.0223 0.43202,-0.0533 0.63898,-0.0825 0.38197,-0.0538 0.47284,-0.0637 0.58145,-0.0637 0.14644,0 0.23136,0.0166 0.64805,0.12679 0.35426,0.0937 0.52661,0.14489 0.52661,0.1565 0,0.003 -0.004,0.002 -0.0463,-0.004 z"
         id="path166089-9-6" />
      <path
         style="fill:#f3c98b;fill-opacity:1;stroke:#000000;stroke-width:0.0145098;stroke-linecap:butt;stroke-linejoin:miter;stroke-dasharray:none;stroke-opacity:1"
         d="m 150.04685,239.59356 c -0.0151,-0.006 -0.0226,-0.0348 -0.0166,-0.0642 0.0133,-0.0654 -0.0828,-0.14995 -0.33886,-0.29818 -0.0976,-0.0565 -0.17753,-0.11234 -0.17765,-0.12414 -2.8e-4,-0.0398 0.17883,-0.32863 0.2668,-0.42989 0.13395,-0.15419 0.40945,-0.32345 0.64095,-0.39379 0.27189,-0.0826 0.68285,-0.10248 0.81025,-0.0392 0.2087,0.10368 0.17397,0.16789 -0.27284,0.50449 -0.41711,0.31422 -0.674,0.54992 -0.78994,0.72477 -0.049,0.074 -0.0904,0.13364 -0.0918,0.13263 -0.001,-0.001 -0.0151,-0.007 -0.0302,-0.0125 z"
         id="path166091-9-3" />
      <path
         style="fill:#f3c98b;fill-opacity:1;stroke:#000000;stroke-width:0.0145098;stroke-linecap:butt;stroke-linejoin:miter;stroke-dasharray:none;stroke-opacity:1"
         d="m 147.86821,236.44084 c -0.30731,-0.10097 -0.44443,-0.18647 -0.41489,-0.25869 0.0214,-0.0524 0.15935,-0.0442 0.38278,0.0228 0.10678,0.032 0.21618,0.0583 0.24311,0.0585 0.0445,2.6e-4 0.0454,-0.003 0.01,-0.0365 -0.061,-0.0572 -0.36045,-0.1503 -0.48365,-0.1503 -0.0611,0 -0.11104,-0.005 -0.11104,-0.012 0,-0.007 0.0845,-0.17036 0.18789,-0.36392 0.10333,-0.19356 0.21129,-0.4118 0.2399,-0.48497 0.0286,-0.0732 0.0595,-0.14083 0.0686,-0.15037 0.009,-0.01 0.0555,0.009 0.10287,0.0402 0.0474,0.0316 0.16195,0.0793 0.25449,0.10602 0.0926,0.0267 0.16827,0.0521 0.16827,0.0564 0,0.004 -0.0173,0.0466 -0.0384,0.094 -0.0211,0.0474 -0.0833,0.24075 -0.13813,0.42966 -0.15715,0.54114 -0.21998,0.70622 -0.26801,0.70421 -0.0229,-0.001 -0.11449,-0.0257 -0.20361,-0.055 z"
         id="path166093-3-8" />
      <path
         style="fill:#f3c98b;fill-opacity:1;stroke:#000000;stroke-width:0.0145098;stroke-linecap:butt;stroke-linejoin:miter;stroke-dasharray:none;stroke-opacity:1"
         d="m 148.21756,235.02902 c -0.0925,-0.0437 -0.14432,-0.0848 -0.1601,-0.12685 -0.0488,-0.13028 0.18418,-0.81057 0.33736,-0.98491 0.0961,-0.10943 0.24911,-0.20264 0.33254,-0.20264 0.0343,0 0.098,0.0298 0.14143,0.0662 0.0661,0.0554 0.0808,0.0869 0.0901,0.19293 0.01,0.10954 -0.006,0.17055 -0.11761,0.45026 -0.0708,0.17795 -0.16656,0.40158 -0.21289,0.49695 -0.0833,0.1716 -0.0852,0.1734 -0.17913,0.17302 -0.0533,-2.2e-4 -0.15491,-0.0287 -0.23166,-0.065 z"
         id="path166095-8-5" />
      <path
         style="fill:#f3c98b;fill-opacity:1;stroke:#000000;stroke-width:0.0145098;stroke-linecap:butt;stroke-linejoin:miter;stroke-dasharray:none;stroke-opacity:1"
         d="m 145.70566,234.41043 -0.081,-0.0244 5.6e-4,-0.36495 c 10e-4,-0.7531 0.0572,-0.96834 0.27976,-1.07822 l 0.1184,-0.0585 0.0935,0.0468 c 0.14545,0.0728 0.18743,0.17816 0.18478,0.46396 -0.004,0.43136 -0.0828,0.78516 -0.18685,0.83895 -0.0297,0.0153 -0.11501,0.0396 -0.18959,0.054 -0.0746,0.0143 -0.13951,0.0371 -0.14431,0.0506 -0.0109,0.0305 0.10856,0.054 0.27678,0.0545 0.0917,2.6e-4 0.1172,0.007 0.0904,0.023 -0.0485,0.0294 -0.33814,0.0256 -0.44248,-0.006 z"
         id="path166097-3-5" />
      <path
         style="fill:#f3c98b;fill-opacity:1;stroke:#000000;stroke-width:0.0145098;stroke-linecap:butt;stroke-linejoin:miter;stroke-dasharray:none;stroke-opacity:1"
         d="m 143.78293,235.17133 c -0.0483,-0.0223 -0.0979,-0.0696 -0.11625,-0.11081 -0.0489,-0.10986 -0.0876,-0.40813 -0.10383,-0.80065 -0.0163,-0.39445 -0.002,-0.45906 0.1225,-0.55742 0.16395,-0.12941 0.35737,-0.042 0.42659,0.19274 0.0492,0.1667 0.0918,0.55056 0.0918,0.82669 0,0.23499 0.004,0.22967 -0.22436,0.27898 -0.16501,0.0356 -0.2667,0.0807 -0.22997,0.10198 0.0254,0.0147 0.30708,-0.016 0.42317,-0.0461 0.0977,-0.0254 0.0656,0.0555 -0.0426,0.10734 -0.11928,0.0571 -0.23397,0.0595 -0.34699,0.007 z"
         id="path166099-29-0" />
      <path
         style="fill:#f3c98b;fill-opacity:1;stroke:#000000;stroke-width:0.0145098;stroke-linecap:butt;stroke-linejoin:miter;stroke-dasharray:none;stroke-opacity:1"
         d="m 143.79401,236.60865 c -0.007,-0.0418 -0.0304,-0.31805 -0.0516,-0.61389 -0.0212,-0.29583 -0.0451,-0.58702 -0.0533,-0.6471 l -0.0148,-0.10922 0.10889,0.0237 c 0.0599,0.013 0.18963,0.0183 0.2883,0.0117 l 0.1794,-0.012 0.0377,0.10919 c 0.0435,0.12597 0.14015,0.48536 0.21022,0.78133 l 0.0484,0.20443 -0.0658,-0.0173 c -0.10476,-0.0276 -0.41463,-0.0112 -0.51235,0.0271 -0.11439,0.0448 -0.11993,0.0948 -0.008,0.0756 0.16389,-0.0281 0.43883,-0.0441 0.50206,-0.0292 0.21943,0.0517 -0.14733,0.2249 -0.47614,0.2249 -0.0725,0 -0.13187,0.0105 -0.13187,0.0234 0,0.058 -0.0489,0.0155 -0.0607,-0.0526 z"
         id="path166101-5-1" />
      <path
         style="fill:#f3c98b;fill-opacity:1;stroke:#000000;stroke-width:0.0145098;stroke-linecap:butt;stroke-linejoin:miter;stroke-dasharray:none;stroke-opacity:1"
         d="m 142.32254,238.32666 c -0.37438,-0.77799 -0.48644,-1.02688 -0.68661,-1.52508 -0.0801,-0.19936 -0.19053,-0.46246 -0.24537,-0.58465 -0.10502,-0.23395 -0.20321,-0.55081 -0.20321,-0.65573 0,-0.14805 0.0799,-0.25633 0.18921,-0.25633 0.14378,0 0.36906,0.3406 0.48319,0.73053 l 0.053,0.18095 -0.0885,0.0729 c -0.10121,0.0834 -0.11472,0.12727 -0.0324,0.10527 0.0309,-0.008 0.0897,-0.0216 0.13087,-0.0297 0.0744,-0.0146 0.0746,-0.0145 0.0282,0.0347 -0.0256,0.0272 -0.10132,0.0665 -0.16826,0.0873 -0.067,0.0208 -0.12172,0.0479 -0.12172,0.0602 0,0.047 0.0796,0.0469 0.22816,-1.4e-4 0.0849,-0.0269 0.15618,-0.0464 0.15832,-0.0432 0.0412,0.06 0.41124,0.65643 0.41124,0.6627 0,0.005 -0.0645,0.0394 -0.14342,0.0767 -0.17551,0.0831 -0.26571,0.14944 -0.25275,0.18583 0.006,0.0181 0.0762,-0.002 0.20474,-0.059 0.15108,-0.067 0.20438,-0.0809 0.23682,-0.0617 0.0759,0.0449 0.0441,0.0884 -0.15346,0.20992 -0.22889,0.14073 -0.26776,0.17223 -0.2125,0.17223 0.0211,0 0.13135,-0.0524 0.24497,-0.11647 0.11362,-0.0641 0.21523,-0.11146 0.2258,-0.10533 0.0106,0.006 0.13534,0.18668 0.27727,0.40122 0.24758,0.37422 0.35526,0.5066 0.45331,0.55724 0.039,0.0201 0.0144,0.0434 -0.17604,0.16723 -0.12173,0.0791 -0.28775,0.20276 -0.36893,0.27479 -0.0812,0.072 -0.14789,0.13056 -0.14823,0.13008 -2.8e-4,-5.3e-4 -0.14603,-0.30303 -0.32375,-0.67235 z m 0.0489,-0.61023 c 0.10273,-0.0443 0.20571,-0.13331 0.18098,-0.15652 -0.0178,-0.0167 -0.23663,0.0867 -0.31833,0.1505 -0.0572,0.0447 -0.0582,0.0485 -0.0122,0.0487 0.0274,1.4e-4 0.0947,-0.0191 0.14957,-0.0427 z"
         id="path166103-4-2" />
      <path
         style="fill:#f3c98b;fill-opacity:1;stroke:#000000;stroke-width:0.0812501;stroke-linecap:butt;stroke-linejoin:miter;stroke-dasharray:none;stroke-opacity:1"
         d="m 145.85324,246.36677 c -0.10914,-0.021 -0.31976,-0.056 -0.46804,-0.0778 -0.14828,-0.0217 -0.27341,-0.0434 -0.27806,-0.048 -0.005,-0.005 0.0138,-0.0525 0.0409,-0.10631 0.0594,-0.11765 0.16044,-0.40265 0.19448,-0.54853 0.0427,-0.18314 0.0256,-0.48145 -0.0277,-0.48145 -0.017,0 -0.0138,-0.0133 -0.0807,0.339 -0.0431,0.22717 -0.1739,0.78316 -0.18687,0.7943 -0.002,0.002 -0.10853,-0.006 -0.23586,-0.0184 -0.77972,-0.0745 -1.55057,-0.0291 -2.24726,0.1326 -0.0627,0.0146 -0.11577,0.0245 -0.11788,0.022 -0.002,-0.002 0.0215,-0.09 0.0524,-0.19463 0.0457,-0.1544 0.0591,-0.23526 0.0714,-0.42994 0.0143,-0.2261 0.0752,-0.59911 0.15067,-0.92283 0.0183,-0.0785 0.0851,-0.27116 0.14849,-0.42812 0.0634,-0.15695 0.14915,-0.37661 0.19065,-0.48813 0.0415,-0.11152 0.0786,-0.20596 0.0825,-0.20986 0.004,-0.004 0.0538,0.0417 0.1108,0.10132 0.0906,0.0947 0.11801,0.11282 0.21672,0.14331 0.13308,0.0411 0.28874,0.0448 0.43492,0.0103 0.11434,-0.027 0.33607,-0.12111 0.33607,-0.14269 0,-0.0167 -0.0402,-0.0259 -0.17363,-0.0397 -0.24874,-0.0258 -0.43494,-0.10405 -0.55128,-0.23151 -0.085,-0.0931 -0.14829,-0.1986 -0.13012,-0.21678 0.006,-0.006 0.0991,0.008 0.20599,0.0326 0.30796,0.0703 0.35789,0.0568 0.18188,-0.0489 -0.24147,-0.14508 -0.39253,-0.28963 -0.54746,-0.52389 -0.22941,-0.34686 -0.4129,-0.82754 -0.54736,-1.43386 -0.12815,-0.57789 -0.18941,-1.21828 -0.1263,-1.3204 0.0104,-0.0169 0.0731,0.009 0.27157,0.11176 0.14189,0.0736 0.26941,0.13377 0.28337,0.13377 0.0532,0 0.0221,0.0315 -0.0571,0.0578 -0.0454,0.0151 -0.0867,0.0342 -0.0918,0.0424 -0.009,0.0149 0.0219,0.0116 0.18028,-0.019 0.17051,-0.033 0.46151,-0.17584 0.68277,-0.33519 0.13846,-0.0997 0.45736,-0.37481 0.44677,-0.3854 -0.004,-0.004 -0.12162,0.0696 -0.26136,0.16356 -0.38594,0.2595 -0.57518,0.34247 -0.84295,0.36959 -0.16321,0.0165 -0.21143,-0.006 -0.38973,-0.18231 -0.202,-0.19971 -0.22857,-0.25652 -0.22857,-0.48871 0,-0.1667 0.002,-0.17885 0.0624,-0.30422 0.037,-0.0776 0.0584,-0.14308 0.0526,-0.16132 -0.007,-0.0208 -8e-5,-0.0337 0.0203,-0.0398 0.12167,-0.0369 0.81223,-0.46192 0.95708,-0.5891 0.0856,-0.0751 0.14931,-0.17539 0.18262,-0.2873 0.0245,-0.0822 0.0289,-0.15766 0.027,-0.46204 -0.001,-0.20009 -0.0136,-0.50099 -0.0276,-0.66865 -0.0139,-0.16767 -0.0218,-0.30843 -0.0174,-0.31282 0.004,-0.004 0.008,-2.3e-4 0.008,0.009 0,0.0401 0.44334,0.0376 0.59532,-0.003 0.19309,-0.052 0.17098,-0.10819 0.19205,0.48772 0.0101,0.28649 0.0239,0.58931 0.0306,0.67291 l 0.0122,0.15201 -0.0926,0.0258 c -0.051,0.0142 -0.13542,0.0376 -0.18772,0.0521 -0.23167,0.0641 -0.50286,0.18866 -0.41083,0.18866 0.0167,0 0.12804,-0.0258 0.24746,-0.0573 0.17122,-0.0452 0.67041,-0.15768 0.69966,-0.15768 0.0175,0 0.22809,-0.34432 0.26272,-0.42954 0.0553,-0.13605 0.18525,-1.05758 0.23891,-1.69392 0.01,-0.11743 0.0366,-0.29955 0.0593,-0.40473 0.0227,-0.10517 0.0636,-0.37001 0.0908,-0.58852 0.0272,-0.21851 0.0533,-0.41258 0.058,-0.43126 0.008,-0.0339 0.009,-0.0338 0.12739,0.006 0.10631,0.0359 0.13775,0.0392 0.29668,0.031 l 0.17777,-0.009 v 0.57758 0.57758 l -0.31006,-0.003 c -0.22605,-0.002 -0.32074,0.003 -0.3495,0.0184 -0.0687,0.037 -0.008,0.0502 0.23788,0.0515 0.24976,0.001 0.37894,0.0161 0.40955,0.0467 0.0291,0.0291 -0.0337,0.1347 -0.0952,0.15996 -0.0274,0.0113 -0.15436,0.0284 -0.28216,0.0381 -0.23582,0.0179 -0.28853,0.0277 -0.28853,0.0537 0,0.025 0.0711,0.034 0.35795,0.0454 l 0.2787,0.011 0.005,0.081 c 0.007,0.11812 -0.0711,0.71263 -0.15328,1.15927 -0.0134,0.0728 -0.0246,0.17427 -0.0249,0.22558 -7.9e-4,0.11153 0.0185,0.10337 -0.3065,0.13025 -0.33174,0.0274 -0.35588,0.0423 -0.0909,0.0562 0.31032,0.0162 0.60556,0.0385 0.81072,0.0613 0.0957,0.0106 0.20868,0.0142 0.25097,0.008 0.2019,-0.0303 0.26521,-0.14304 0.60897,-1.08473 0.0747,-0.20464 0.13853,-0.37506 0.14184,-0.37872 0.003,-0.004 0.0712,0.0236 0.15096,0.0606 0.18144,0.0841 0.33377,0.1357 0.43709,0.14793 0.044,0.005 0.0799,0.0107 0.0799,0.0122 0,0.002 -0.09,0.1921 -0.19987,0.42351 -0.21757,0.458 -0.39413,0.84354 -0.47894,1.04583 -0.0297,0.0709 -0.0686,0.13674 -0.0863,0.14621 -0.0478,0.0256 -0.14927,-0.005 -0.41904,-0.12745 -0.22311,-0.10108 -0.30201,-0.12652 -0.27951,-0.0901 0.006,0.009 0.12947,0.0949 0.2754,0.19099 0.32083,0.21122 0.41661,0.29699 0.47956,0.42938 0.0386,0.0812 0.0472,0.12134 0.0472,0.22074 0,0.076 -0.01,0.14195 -0.0258,0.17598 -0.0305,0.0643 -0.18774,0.21715 -0.46198,0.44913 -0.22371,0.18923 -0.28358,0.24862 -0.26717,0.26502 0.006,0.006 0.0577,-0.0211 0.11444,-0.0607 0.32725,-0.22852 0.70941,-0.47968 0.72986,-0.47968 0.013,0 0.0737,0.0874 0.13494,0.1943 0.0612,0.10687 0.13287,0.22593 0.15928,0.26458 0.0264,0.0387 0.0421,0.0702 0.0348,0.0701 -0.007,-1.1e-4 -0.0727,-0.0193 -0.14549,-0.0426 -0.14192,-0.0454 -0.35553,-0.0725 -0.35553,-0.045 0,0.009 0.0651,0.0323 0.14469,0.0518 0.21616,0.0532 0.48668,0.1937 0.63206,0.32829 0.13308,0.12322 0.18236,0.20491 0.18236,0.30229 0,0.0367 0.006,0.0666 0.0124,0.0664 0.007,-2e-4 0.0794,-0.0563 0.16123,-0.12465 0.0819,-0.0683 0.24557,-0.18837 0.36381,-0.26671 0.16513,-0.10942 0.25936,-0.18748 0.40644,-0.33673 l 0.19147,-0.1943 0.12745,0.0821 c 0.18317,0.11803 0.21503,0.0986 0.067,-0.0408 -0.11247,-0.1059 -0.19018,-0.21413 -0.16898,-0.23533 0.0164,-0.0164 0.12528,0.0468 0.32572,0.18914 0.10363,0.0736 0.19814,0.13382 0.21002,0.13382 0.0119,0 0.0275,0.0101 0.0348,0.0224 0.007,0.0123 0.0228,0.0254 0.0345,0.0291 0.0138,0.004 -0.0487,0.11951 -0.17873,0.32902 -0.23601,0.38037 -0.28702,0.48365 -0.37762,0.76462 -0.0956,0.29634 -0.15001,0.39642 -0.28773,0.52887 -0.0637,0.0612 -0.1334,0.13522 -0.15495,0.16444 l -0.0392,0.0531 v -0.0528 c 0,-0.0619 -0.024,-0.0671 -0.0774,-0.0169 -0.021,0.0197 -0.0405,0.0328 -0.0434,0.0289 -0.003,-0.004 -0.0262,-0.13905 -0.0519,-0.30048 -0.0257,-0.16144 -0.0506,-0.29352 -0.0553,-0.29352 -0.0127,0 0.008,0.3968 0.0305,0.59531 0.0246,0.21274 0.0239,0.2147 -0.17177,0.48782 -0.16084,0.22455 -0.33856,0.4238 -0.58556,0.65651 -0.47846,0.45077 -0.99314,0.70775 -1.41752,0.70775 -0.18967,0 -0.3562,0.0199 -0.3562,0.0425 0,0.0313 0.14506,0.1507 0.24058,0.19796 0.0505,0.025 0.12748,0.0454 0.19484,0.0517 0.27697,0.0259 0.0524,0.0799 -0.33207,0.0799 -0.19993,0 -0.28526,0.006 -0.28526,0.0186 1e-5,0.0496 0.27995,0.26518 0.47849,0.36848 0.0747,0.0389 0.13248,0.0741 0.12831,0.0783 -0.0154,0.0154 -0.4269,-0.0782 -0.76051,-0.173 l -0.34389,-0.0977 -0.20181,0.0644 c -0.38748,0.12365 -0.9936,0.27052 -1.62395,0.39349 -0.45035,0.0879 -0.43714,0.09 0.35378,0.0565 0.18848,-0.008 0.25155,-0.006 0.24294,0.008 -0.006,0.0104 -0.031,0.0188 -0.0548,0.0188 -0.10201,0 -0.006,0.0177 0.31024,0.0574 0.75544,0.0947 1.15173,0.16442 1.42694,0.25112 0.17807,0.0561 0.24325,0.0907 0.30623,0.16239 0.0956,0.10883 0.0809,0.20124 -0.16564,1.0422 -0.0826,0.28194 -0.15116,0.51313 -0.15225,0.51376 -0.001,5.3e-4 -0.0913,-0.0161 -0.20044,-0.0371 z m -1.34455,-1.04345 c 0.073,-0.22133 0.11935,-0.47422 0.12014,-0.65538 7.9e-4,-0.17371 -0.0221,-0.22414 -0.0553,-0.12226 -0.0154,0.0472 -0.11009,0.61023 -0.14227,0.84602 -0.0174,0.12712 0.0254,0.0894 0.0774,-0.0684 z m 1.2892,-1.63315 c -0.003,-0.0179 -0.043,-0.13293 -0.0884,-0.25571 -0.12277,-0.33144 -0.14656,-0.43785 -0.1571,-0.7028 -0.0199,-0.50002 0.0697,-0.91101 0.27337,-1.25459 0.22291,-0.37597 0.57373,-0.69336 1.27906,-1.15718 0.28157,-0.18516 0.32431,-0.21817 0.30609,-0.23639 -0.0132,-0.0132 -0.4781,0.22032 -0.66896,0.33605 -0.52964,0.32116 -0.87805,0.68136 -1.11477,1.15248 -0.18494,0.36807 -0.24279,0.61296 -0.25635,1.08521 -0.008,0.26738 -0.004,0.32676 0.0255,0.47129 0.046,0.22244 0.13615,0.40365 0.25809,0.51898 0.0937,0.0886 0.15492,0.10681 0.14357,0.0427 z m -1.59413,-0.90477 c 0.009,-0.0114 0.0694,-0.11563 0.13407,-0.2317 0.22066,-0.39598 0.44044,-0.70283 0.96809,-1.35166 0.31081,-0.38218 0.57213,-0.73758 0.57213,-0.7781 0,-0.0391 -0.0398,-0.005 -0.15924,0.13731 -0.0707,0.0841 -0.25549,0.29807 -0.41056,0.47542 -0.572,0.65417 -0.79772,0.95203 -0.94985,1.25339 -0.0569,0.11266 -0.17312,0.40077 -0.18986,0.47054 -0.0114,0.0474 0.007,0.0603 0.0352,0.0248 z m 1.85517,-0.46335 c 0.18486,-0.63567 0.3734,-0.96855 0.89193,-1.57477 0.10113,-0.11823 0.1839,-0.22055 0.18392,-0.22737 1.1e-4,-0.0339 -0.0496,0.002 -0.22195,0.16113 -0.42855,0.39528 -0.6009,0.62358 -0.76319,1.01092 -0.11072,0.26429 -0.15606,0.44672 -0.16591,0.66763 -0.01,0.22276 0.001,0.21725 0.0752,-0.0375 z m -1.86599,-1.45786 c 0.0673,-0.0585 0.20055,-0.17413 0.29605,-0.257 0.36856,-0.31983 0.90283,-0.70513 1.34772,-0.97195 0.29828,-0.17888 0.47194,-0.2672 0.84311,-0.42877 0.15448,-0.0672 0.28805,-0.12944 0.29683,-0.13822 0.0558,-0.0558 -0.34992,0.0684 -0.67697,0.20721 -0.74997,0.31834 -1.6145,0.92728 -2.11144,1.4872 -0.13291,0.14976 -0.16973,0.20787 -0.13173,0.20787 0.008,0 0.0691,-0.0478 0.13643,-0.10634 z m 4.6524,-0.50551 c 7.9e-4,-0.11321 -0.006,-0.15181 -0.0329,-0.19835 -0.0319,-0.0543 -0.11038,-0.10106 -0.13251,-0.0789 -0.006,0.006 0.009,0.072 0.0319,0.14777 0.0342,0.11264 0.0703,0.28348 0.0779,0.36929 7.9e-4,0.009 0.0134,-0.01 0.0281,-0.0413 0.0174,-0.038 0.0269,-0.10622 0.0276,-0.19843 z m -3.65134,-0.98671 c 0.1056,-0.0718 0.36596,-0.26859 0.47522,-0.35917 0.0261,-0.0216 0.0444,-0.0485 0.0407,-0.0598 -0.0139,-0.0418 -0.65869,0.43087 -0.65869,0.48283 0,0.026 0.0307,0.0123 0.14277,-0.0639 z"
         id="path169641-3-64" />
    </g>
  </g>
</svg>
