<?xml version="1.0" encoding="UTF-8" standalone="no"?>
<!-- Created with Inkscape (http://www.inkscape.org/) -->

<svg
   width="20.493484mm"
   height="20.49349mm"
   viewBox="0 0 20.493484 20.49349"
   version="1.1"
   id="svg91729"
   sodipodi:docname="buttons-zoom.svg"
   xmlns:inkscape="http://www.inkscape.org/namespaces/inkscape"
   xmlns:sodipodi="http://sodipodi.sourceforge.net/DTD/sodipodi-0.dtd"
   xmlns="http://www.w3.org/2000/svg"
   xmlns:svg="http://www.w3.org/2000/svg">
  <sodipodi:namedview
     id="namedview91731"
     pagecolor="#ffffff"
     bordercolor="#000000"
     borderopacity="0.25"
     inkscape:showpageshadow="2"
     inkscape:pageopacity="0.0"
     inkscape:pagecheckerboard="0"
     inkscape:deskcolor="#d1d1d1"
     inkscape:document-units="mm"
     showgrid="true"
     inkscape:lockguides="false"
     inkscape:zoom="0.4204826"
     inkscape:cx="323.43788"
     inkscape:cy="541.04498"
     inkscape:window-width="2560"
     inkscape:window-height="1499"
     inkscape:window-x="0"
     inkscape:window-y="0"
     inkscape:window-maximized="1"
     inkscape:current-layer="layer1">
    <inkscape:grid
       type="xygrid"
       id="grid92220" />
  </sodipodi:namedview>
  <defs
     id="defs91726">
    <filter
       style="color-interpolation-filters:sRGB"
       inkscape:label="Drop Shadow"
       id="filter106782-7"
       x="-0.056692921"
       y="-0.056692921"
       width="1.176378"
       height="1.176378">
      <feFlood
         flood-opacity="1"
         flood-color="rgb(0,0,0)"
         result="flood"
         id="feFlood106772-9" />
      <feComposite
         in="flood"
         in2="SourceGraphic"
         operator="in"
         result="composite1"
         id="feComposite106774-9" />
      <feGaussianBlur
         in="composite1"
         stdDeviation="1.5"
         result="blur"
         id="feGaussianBlur106776-3" />
      <feOffset
         dx="4"
         dy="4"
         result="offset"
         id="feOffset106778-2" />
      <feComposite
         in="SourceGraphic"
         in2="offset"
         operator="over"
         result="composite2"
         id="feComposite106780-4" />
    </filter>
  </defs>
  <g
     inkscape:label="Layer 1"
     inkscape:groupmode="layer"
     id="layer1"
     transform="translate(-117.07212,-20.405763)">
    <g
       id="g139498">
      <rect
         style="fill:#a1b1c4;fill-opacity:1;stroke:#737373;stroke-width:0;stroke-linecap:round;stroke-linejoin:round;filter:url(#filter106782-7)"
         id="rect106253-7"
         width="63.5"
         height="63.5"
         x="26.641663"
         y="20.787777"
         ry="1.2715656e-06"
         transform="matrix(0.2743439,0,0,0.2743439,110.75078,15.690402)" />
      <g
         id="g133470-8-1"
         transform="matrix(0.2743439,0,0,0.2743439,85.605251,17.376712)">
        <g
           id="g133465-7-2">
          <path
             style="fill:none;fill-opacity:1;stroke:#000000;stroke-width:6;stroke-linecap:round;stroke-linejoin:round;stroke-dasharray:none;stroke-opacity:1"
             d="m 163.5602,60.243246 6.61458,6.614583"
             id="path128996-3-4-2" />
          <path
             style="fill:#ff0000;fill-opacity:1;stroke:#000000;stroke-width:3.3633;stroke-linecap:round;stroke-linejoin:round;stroke-dasharray:none;stroke-opacity:1"
             d="m 146.29248,61.264271 c -6.21654,-1.030682 -12.06071,-5.614543 -14.3541,-11.258603 -3.43241,-8.447228 0.6616,-17.970423 9.48411,-22.061225 2.99781,-1.390018 4.45806,-1.682253 8.41901,-1.684883 2.94232,-0.0019 3.70941,0.07298 5.22802,0.510686 6.26354,1.805334 11.04461,6.239798 12.93034,11.992951 0.58764,1.7928 0.63985,2.218523 0.6352,5.179165 -0.005,2.947192 -0.0586,3.379518 -0.62464,5.005555 -1.56338,4.490921 -4.96424,8.299352 -9.3814,10.505709 -3.63201,1.814182 -8.23788,2.490187 -12.33654,1.810645 z m 5.20757,-4.334431 c 0.87009,-0.333883 1.01108,-1.197218 1.01108,-6.191126 v -4.79413 h 4.79413 c 5.43443,0 5.88636,-0.103857 6.33236,-1.455262 0.20422,-0.618799 0.20152,-0.942964 -0.0121,-1.458777 -0.52526,-1.268079 -0.73537,-1.312871 -6.15832,-1.312871 h -4.95605 v -4.95605 c 0,-5.495478 -0.0484,-5.706134 -1.4147,-6.15705 -0.92252,-0.304461 -1.68394,-0.04989 -2.33806,0.78168 -0.45106,0.573426 -0.47415,0.839745 -0.47415,5.467104 v 4.864316 h -4.87725 -4.87725 l -0.68448,0.575948 c -0.95206,0.801108 -0.9665,2.068351 -0.0342,3.000669 l 0.6503,0.650293 h 4.8996 4.8996 l 0.0675,4.98811 c 0.0667,4.929775 0.0738,4.99482 0.60678,5.561724 0.54002,0.574347 1.69316,0.770078 2.56526,0.435422 z"
             id="path133390-7-1-0" />
        </g>
      </g>
    </g>
  </g>
</svg>
